<mxfile host="app.diagrams.net" modified="2023-12-01T00:51:24.755Z" agent="Mozilla/5.0 (Windows NT 10.0; Win64; x64) AppleWebKit/537.36 (KHTML, like Gecko) Chrome/119.0.0.0 Safari/537.36 Edg/119.0.0.0" etag="EsXF01VhAKV928X_r3Np" version="22.1.5" type="device" pages="2">
  <diagram name="Страница — 1" id="o3sYmgAIau1fM3dsohi6">
    <mxGraphModel dx="2320" dy="1200" grid="1" gridSize="10" guides="1" tooltips="1" connect="1" arrows="1" fold="1" page="1" pageScale="1" pageWidth="3300" pageHeight="2339" math="0" shadow="0">
      <root>
        <mxCell id="0" />
        <mxCell id="1" parent="0" />
        <mxCell id="Sf9XIOIQq0EHz7IIRPpC-202" value="" style="shape=image;imageAspect=0;verticalLabelPosition=bottom;verticalAlign=top;image=data:image/png,iVBORw0KGgoAAAANSUhEUgAABC8AAAPCCAYAAABYzPLvAAAAAXNSR0IArs4c6QAACdV0RVh0bXhmaWxlACUzQ214ZmlsZSUyMGhvc3QlM0QlMjJhcHAuZGlhZ3JhbXMubmV0JTIyJTIwbW9kaWZpZWQlM0QlMjIyMDIzLTEyLTAxVDAwJTNBNDglM0EwMy44MDZaJTIyJTIwYWdlbnQlM0QlMjJNb3ppbGxhJTJGNS4wJTIwKFdpbmRvd3MlMjBOVCUyMDEwLjAlM0IlMjBXaW42NCUzQiUyMHg2NCklMjBBcHBsZVdlYktpdCUyRjUzNy4zNiUyMChLSFRNTCUyQyUyMGxpa2UlMjBHZWNrbyklMjBDaHJvbWUlMkYxMTkuMC4wLjAlMjBTYWZhcmklMkY1MzcuMzYlMjBFZGclMkYxMTkuMC4wLjAlMjIlMjBldGFnJTNEJTIyX0dyc1JyUVh5UkRRRDZfVURPTDMlMjIlMjB2ZXJzaW9uJTNEJTIyMjIuMS41JTIyJTIwdHlwZSUzRCUyMmRldmljZSUyMiUyMHBhZ2VzJTNEJTIyMiUyMiUzRSUzQ2RpYWdyYW0lMjBpZCUzRCUyMlkweTNjS3YtNEEyYUlNSElhMGtpJTIyJTIwbmFtZSUzRCUyMlBhZ2UtMSUyMiUzRTdadGZsNW80Rk1BJTJGRFklMkZUUXdpZ1BvTGd6T3hXM2VNdzdiNVN5U2luU0Z5TTFkbFB2eUVRUkVPN3RFMmdPdldCUDVjUTRIZHZrbnVUcXdiSG0lMkJOOUZtN1hVeHloUkRQMDZLaEJUek1NYUZrRHVzc2xyNFhFc0hTOWtLeXlPQ3BrNENSNGl2OUZwWkFYMjhjUjJwMFZKQmduSk42ZUM1YzRUZEdTbk1uQ0xNT0g4Mkl2T0RsJTJGNmpaY0lVSHd0QXdUVWZveGpzaTZrQTR0JTJGU1IlMkZRUEZxelo4TSUyQlBkdFFsNjRGT3pXWVlRUE5SSDBOVGpPTUNiRjBlWTRSa2xPajNNcDdwdDg1V3IxWWhsS1Nac2JqT0tHTDJHeUw3JTJCdGZDJTJGeXlqODJ3JTJGczBRbmw1WFlQdVlSMFQ5TFFObCUyRm5WQTlVdmxhM0pKcUZuZ0I2S3p5OWY2UXZLQ0RyV1JPWDczQ084UVNSN3BVWEtxM2VWTlpUbWNRZnRVbkE0d1FiNm9CU3VhNlJIdkdSWWFuaFZWWCUyQkNRQTlLRHMxTTRHMHhxWXp2WjVpWVY4Q2tPdThHeWRDU3pHUkhNdndaalhHQ015cUowRXU0VCUyQmdMdXk4NEpXVWZDSXhPN1Frb1kyY0w3SjZmZkxyVG5VQ0Rqc0NSZmhiNUZxd1VweWduRlNmSmhTaE00bFZLVDVjVUZxSnlONGNVMDY3Y0tTOXM0aWpLSDlPb25YUDk5YVlJdTBFUFVJWWFCbGRzd25EVWdoelVsWm53VUdEblBBY1A4d1d6WDEyanVCeTJkWXZ0UUtPRWhuVUpZRnVmeVEyMkhUREprRzJkOHJpb2FsUlVTSkhZRE9pbmpCNnRDRU5wJTJGN1BQM1FYM0FSUG1hRDNnM1RZbTFQQkpqbXNhcHRRZDJlU2dxNUlLMmxlQ1hzaXYxN3BhMlFnWU50aUlLY05FUm9LSmVFN2dGd1ppZ0hjQXZLTjclMkJHYTBZYlFiZElBYWJYQlRxR25qcjhYOEQzOGNuRnJzcVpucHY5dlZkN1VyMEtESkp0ZEx4ckExQW9JbUYlMkY0SHBrVTczT1FFMGslMkI3TGZ0VSUyRlZKa21MJTJCYkhRUldPMTlQU3JPVEhXSzI5VEhxZXRKeVJ5RCUyRlNVTGFabGd4TEJFb2wlMkYwVVVObnhhWmRPbXdBT2lxYW9ESnpzSUxaWGNBMGRyakp3MXh6cFhvS3I0dll1d0lsaDd2V0FzNjBXZlp6ZVFFNUtlRFVTUTlPUDg4V2ZqN1A3YmdoZURPbTlBcFZpaW1LNDZpMmNTWEE3Tkp0R0VtVTB4Y2h1NFklMkZuMDZrJTJGODN6dmRwZzJEVEtxbUZiZFJqMUFlM2JmUDQ2ZDRIRSUyQnV4bW9qUU9RT3FoaXJIU3RKSUhaeHV0V1I3S3ZRS1lMa2wxMm5rRHZLNExwZ21TM1hXWmZJVTBISkR2dUo4VVlaJTJCRTducjhRZU43c1dsU3IlMkZyVnBLVXFPQXNSWWlVMld2eG44bGIzM2cxJTJGMGFQbGEwMjRicG1jNjROUGRPWVM3SGFOUXJHaHNqMXA5UVlvdlVUazZyNHElMkJSbEViWDd1NmttQVltbTFpdDZacEJDbkJjRFU1VzlQT2VENEwlMkZMOFZyWmIlMkZraFBaclpRd2FCb2dwS2lnd1pGbUswYmlRb0pzS3phQU9KMDlZVDlKSVlySjQ5bHZaTkpVaXdFS3JMc0h6MW8xVXdqMVhwR0tqdUZzN3ZuWGtWdGpTakxyTmdsaXFsSnJBQkFkeXRuejFMMEtoMUtTQXRxMEFYdWtpbjhmYyUyQiUyQm0yazdGdkZqTXNJWWkwS1prRmprRG9EZ2pIendHNzk5WW4ySlklMkZ6OVVxdXRUeEVuODczYlNqYTg0NlN6eHhXUnBhSkNsbm5rOERZMUtiSjZZUm84bldqMDVodDFXM0RBUk10eVloJTJCU3lNcTVWcTNSWVNvcWtHeGZXRXVFQVQ0ZXJpbm0xWjl1MXFrWm4zOUFxdkxoZHN3VFdSYzhBUmJPRVRmazRQNURpUVU5UGYxQmcxMnIlMkY4NEQlMkJmdyUzRCUzRCUzQyUyRmRpYWdyYW0lM0UlM0NkaWFncmFtJTIwaWQlM0QlMjJzdG1kaEhnbGVfc0w0SGFqSkJqSCUyMiUyMG5hbWUlM0QlMjIlRDAlQTElRDElODIlRDElODAlRDAlQjAlRDAlQkQlRDAlQjglRDElODYlRDAlQjAlMjAlRTIlODAlOTQlMjAyJTIyJTNFblpLeERvSXdFSWFmcG52dEVhS3JGWFZ4WW5CdWFJVW1oU09sQnZUcEJRdGl3MEEwYWRMayUyQjclMkZjWFM4bHdNdnVaRVZkWEZBcVF4aVZIWUVEWVd3VHM2aSUyRkJ2THdaQnRSRDNLcjVTak5JTlZQTmNKSnUydXBta0IwaU1icE9vUVpWcFhLWE1DRXRkaUcyZzFOMkxVV3VWcUFOQk5tU2E5YXVzSlRBRXJuNEt4MFhveXQlMkIyam5rMUpNOXFnMmhaRFlmaUZJQ0lzSmcwNFEySk9CaFFlNFJYU3IyaVNYSFZkbTJQNjBXTiUyRjMlMkJIJTJCQnolMkJPdHF0eHZOWUgzMXNyNGJ5ZjRPWkM4QUElM0QlM0QlM0MlMkZkaWFncmFtJTNFJTNDJTJGbXhmaWxlJTNFh8ZjTAAAIABJREFUeF7s3VusdVV5P+DpTXtRAsQbMWBN0LTGtHggJpUQm5Rg4x1qsfQgQWrAUjBtqIag2AieYkvaIEWkFS1iQ0pV0t40Ui+aKE1q2mppiTWB1ChBE0MjSi96wz/vqmP/xze/uQ7v2nu/ex2edcPH3mPNMeYz1px7zd8cc4znDcPw3OBFgAABAgQIECBAgAABAgQIENhQgedFePHcc/KLDe2fuc163vOeFx23bc3WXgIE9lAgzlcVL+fECmV17IqA7xG70pP2o0rAMVMlrR4C0wJxDAovtvTT4QS6pR2n2QT2UEB4sYedbpc3XsD3iI3vIg3cMAHHzIZ1iObsnYDwYou73Al0iztP0wnsmYDwYs863O5uhYDvEVvRTRq5QQKOmQ3qDE3ZSwHhxRZ3uxPoFneephPYMwHhxZ51uN3dCgHfI7aimzRygwQcMxvUGZqylwLCiy3udifQLe48TSewZwLCiz3rcLu7FQK+R2xFN2nkBgmMj5nPf/7zw5vf/OaDFn70ox8d3vWud53S4kVlvv3tb8/ef+GFFw4f//jHD973h3/4h8MTTzwxfOQjHxmuuuqq4aGHHjpN4bLLLhs++MEPzn7/1a9+9ZTfv+QlLxk+85nPDE899dTw7ne/e/bv1772tbMy//iP/zi89a1vHaKtDz/88HD33Xeftu3XvOY1w+c+97nhRS960QbpawqBYRBebPGnwJeOLe48TSewZwLCiz3rcLu7FQK+R2xFN2nkBgn0x0yEEn0w8IMf/GAWJFx00UUHAUaEEA8++OBBENDKnHPOObOwooUXTz/99CkBQwsv+kAjQod3vvOdwx133HEQRLT333TTTcOb3vSmSanY1iOPPDJ8+tOfnv1+3Mb42Srb2aBu0JQ9FhBebHHn+9KxxZ2n6QT2TEB4sWcdbne3QsD3iK3oJo3cIIF2zEwFFdHMCBje9773Dffee++s1VdfffVw6623HoQNLShoPz/vvPNmZSLM+NGPfjQLGM4666zhKMOLvq1Rfwsyop72GocX8f9Tbd+grtCUPRUQXmxxx0996fjt3/7t4bvf/e7ByW9RmpodkjZOdadOrKsMjRsPbYthb+1kvag7Yt/GQ9uqh7W1PwD98L2pIYKb/LEa3yno27rK8MdN3jdt21yByvAizhXnn3/+wZ2vNkT22muvPeVn/R2s8bE9Pre0bTz++OOnIL/jHe84GOob9carv1MWP4thuTFk97777jto11Sb4r3jtu/COWdzP5VaNvU9ol3ELPpbPe94GB8347vMTXzq/W2YexvaPvU3P97f/uZO/X68DT282QLxPTJGLvSved8Jx99vx99X+m3E4w5xrh5vO8r05+x1dNoxMzUKYry9aGOc+8ffcfsw4YorrpiFBPGoSfztiMc5YgTFUYYX0a52zMW/+0dI5oUX69h4D4EKAeFFhfIx1TH+0hEnpvijHq84YbcvAPOGgh32xDh+/6pD4/oQZF5yPUU2dWEwtQ/HxD3b7O///u/Pnk1stsdZ13FsO7yvv/762aYvuOCCU57LXGX443G0yTb3Q6AyvBifF+Kz/eEPf3h42cteNtx5552zu1r9l8pnnnlmdlxffvnlB8fE+HhYZbju+Bw1/rLdBxPti+Tzn//8U54r7stMPQttaO9+HC9Ve7kovFj0t3qVC7fYh3acxb9jqHt7fn7q/eNjbupvfu8y7zvB1F3lKk/15AT6xxnaKICpm3Dzvt+22io/C3140UZYzJsXYl54Ee1u5/oWXsTojJifIua4iPDlgQcemM15sepjI8tuDLbv21H31A1Df1tyn12lT05gMryY90dpfEdonJj2d6Cn0tTYzZZ4ZtLWxjOV4M9L5qvvyJ9EF46/dIRpe/UnvIrwYt7wsv7nMTQuLhAWjeDoh9uN/xhM/XHq/zB86UtfOmXSpDj5R3rd3+Fpn79Wzyte8Yrh9ttvH8Z3a/rPZ/tdtP+Tn/zk8L3vfe9gBEj/mR/fIY3649VP5BT/H5/NSy+9dDj77LMPLpTasXXNNdfMwoXrrrtuFpD0x2K896677ppdfMW+xh+4+AMUF2VT5acClthebCOS/djHGNYYzqsMfzRp00kc5btTZ2V4MT6PxPEVYV2cL9rw3Xa+jLtd80LQ/uer/F3sz1HzvpS3ESGtjWecccZsuHD7gtr/nZ3aRnwiqkPb3fkU2pOxwKrhxfhzt2p4EZ/n+HsXo4/Go6HGz+63C7r4bxwP64QXi75D6P3NE5g6x019Z533/fakw4upz3CvnA0v4ntb+xsQ28mEF4vmvGjH7xe/+MVZ817/+tefNqmo8GLzjg8tmhZYO7wY32VvH/p252rel67WjFXT1qmTQPysT/Dj//fxoOu/dLQ76nERGxfZ7YQaF5wV4cWqQ+PG4cVhR160LzdXXnnlKZMYtc9XfE7CIi7WL7nkkoNgID4z8bP4UhVfkvrPYwsG2izLfR3xnjb0fOza3y2IbfSTOI19+gun9oUtvtiNw4t+yHkLLz70oQ8NN9988yywePnLX35K2NGXnwov+nrbl8oW8Cz7I+wkSuAwApXhRX8+7I+ReGwjjvk4F8SEZe280P49nuwsjtt2F+w73/nO0onS2rkijuV+grb+C/Y4vLjtttuGW2655SBU6YPMqUnVDtMH3ktg3fBi/Ld6lfAi/ka2vytx/LTwPe6wz3t//7cyLsZakDHVc5V3231yjkdg3rVCH+Iu+n57kuHFvO+v/ec+2rfqnBctWG/HRowUjHB71ZEXi8KL8Y2wqe97+3gddTyfals9boG1w4tlfzTuueeeyQlhFoUXyw6ceQn+VHixDxPN9OFFu6PehkT3F6ZHFV6Mh6SFexvJsGq6HOHFeDurPn84Ncpm3rORU+1pf2jiguWFL3zhKRciiz4v7S5nBCTjIYLtd20pq/as4viP2jrhRQwf/MIXvjA7ZCKoaOFFJOYxLDb+oPV/1Mflx+FFXzZ+F22Ku2GxHXerjvtUa/uV4UUfCF588cWnjFiKz3yEf+3L25lnnnkQZIzDi/64iIuvOL7Hc170o6/6c9TU6L/xYyPtfBLDg9tQ9/gC2oLMcajSb3/VuYJ88ggsEsjMedH/rV5lDpj+b8z478+q4cV4nqt+lOTUd4J9GHW7S5/oVcKLRd9vl4UXU3NetFG56zqustpIP5pulUeqxwFHG/07/n68yuOL4/0a31yO36864mVdI+8jcJwCa4cXbaKceV+g1hl50X/hHK+RvCjBnwovjhNtU7bdn0CnHsNpJ72jCi8WPe6RCS/adla5c9NbrzKEtP+i03822+d1/NhIe2yiDy/iTu14Te14X4QX/Z2jaFv7chYXQ+NRJf2Fythn/P/jx0biIikmVGr/beFF/P/P//zPHzyv2L4QTpUfhxdTXzbbF72pu8qb8jnXjt0QqA4v2rEZIy0icIi/Kf1jU3F8Rdgbr3kjL8bhRX+3qh+V0R6piuP4n//5n2fPK8cIqfHkyfPCiz5AacPrYxTWvJEXi863u/FpsRdVAqs8NjL1t3qVv99T4UIL++a9v//umBl5kRnFWWWrnuUCU9cK475c9P12WXhxHPOfjI+Z8cShUzfkFk2GPnXzbNFEt/OWSp26wRh/59ojzP08F1Pbt9rI8s+rEpshsHZ4Ec0fP+PfXyzOm/OiJZ6rpK090aIEf9/Di6lwYupivI0KWHSyz6S6/XPX6855MU6kFx0Wi8KL8YXEvC/37eIh7sb2fwD6/f7yl798yqihtp/93dp2sbLuyIsW1PVhS3ypa4+NxN2lmFsjRnS0OTDiPW2+iv7CK34/VX4cXkz5LRui3oeG5rzYjJP2traiOryIz24ECLH03Bvf+MbZ/DfxNysuiGL+i/h5C8nXnfOif1QshsL3x9jUxdS88CKOrXYOO/fcc4eLLrpo1rZ5fyeFF9t6FGxeu1cJL6LV47/Vy8KLeYFHG200LzDvj6FVblhE29qw+hbQx9/S8SiqzZPXova5GgcM/XfauMEyvjE09X1z2WjwfknQw8pbXviwgt5P4HAChwovxlX3J491Rl4sSs4XJfj7Hl5M3QEcW46/ZM/7I79ueDH15Wac7E6FLJm7JauGF+0uZrTpgx/84PCe97znYI6UPrzo56/oP6/9I09tFYILL7zwYAKx9sz6+A9ob7xszoupY6cfKv7oo4/ORl70z+u38CLuFkcb49Xuzk6V78OLRaNv2heHcZvnJf+HO+Uc3bvbPo3vNkwNCR3vyzh47VsVIWx8buKu93jbqyzDtyjUbfWs+ljbvHLLHvMZ3+XpTXq3PnAej8zpH4fof7fusOzq8KKNSoqQop8jKVYMevbZZ2cjqcYrMh31aiPj8+yi8KIPNJt966t2/un/1kXIscoS00d3xNnSLgqsGl5k57xYNix9/Ohm2FptZBc/YYv3adn8d+M5yGJr84LhPsiaF4wchbDw4igUbYPA+gKT4cWiIUxxR2g8qWCrvr8bdJRzXixL8BdNSrk+zea/s51A513Uj++UjAOgqYu8w4QX7ctHv7pGfwE07wK6/8IS25i39NSi8KK/YIwLzBtvvHH2RSgeC4nnydtzj+1i7bHHHpvVE5MhPfTQQ7MVQNoEnf3FXfz8bW972xAzNMeFQrz6R0qWrTbS7v4su1M6bwRE/5xwH15EqBLPSMZ+xWiMdqd2/Fxxf2y2iQf7ERTji6tVhj9uypEx9XmaF8o1/2j7eLLfzGd+lX3vJ0Wd+pLV2v30009PrrXeBxxxLI3LtX0cL7HZv6+fsLcPN1uw1z4v7ZjqR/iMV7kZTwq7LJieZ1QdXsz78joV9vZfiON8EK9xSLNomHubnDNGekx9gY7jNM4v/YoLUwHU1LPJsb3xubs/76zymVSGwKLj8rnnnjvl16v+rZ6aAyb+/sZIiP7vUr/xFvLHo5Dx734OmXE4PHXTKrbVhuVPfSeYdwz5BGymwNQo7T5Uz3y/nXfuHe/5YecLEl5s5mdJq/ZHYDK8mLrjOk7Ex19gx+9Z9gV3WdraD/FaluDHBeK8P7a73JVOoOv37rI71+tv2TurBFYZTdKvGz+1XF+0dZ3wYtWRE+ML6AjN4gt/C9fa7OJjsxZQjMu183Afzi17nGc8BLefGGzZhXwLOfr2rXvsnER4UfVZVA+BbRXwPWJbe067T0rAMXNS8uol8H8Ck+FF/GI89HlquPQ4Me0nqZk350VLPGNkxngW4Kk0dNmjJG1CtDa8v00Gmbm42NYPgxPo+j237gXY+jV651ELzAsvxn3bz9sxXq5v3fAisy/z7g5OLZ823u66j42Mw4Y2EiN+3o9smjeaYFEYvCyYnmcjvMh8apQlUCPge0SNs1p2R8Axszt9aU+2U2BueLGdu7NfrXYC3a/+trenCqwaXiyb7HfRyIvxnBfZ4abzRjasGq4eNryYWrK3f3xoXnixaDh2mKyz1JzwwhFMYPMEfI/YvD7Ros0WcMxsdv9o3e4LCC+2uI+dQLe48zT90AKLnsvuL9CXTfa7zmMjqzR+/Khd/56K8GLq8b/xqJSpfR9P7jve13Uf0RNerPKpUYZArYDvEbXeatt+AcfM9vehPdhuAeHFFvefE+gWd56mH1pglTkvYo6J8Zroq1zAr3uB3nZq2RLAxx1ezJu0blzv1GSe55xzzsHSg1OdlFkhqH+/8OLQH3kbIHDkAr5HHDmpDe64gGNmxzvY7m28gPBi47tofgOdQLe48zT90AKrrDayymS/Rz3yYt6jIv0OH2d4sShcmFpCOdoVqwPMm9V93NZ5j5os61DhxTIhvydQL+B7RL25GrdbwDGz3f2n9dsvILzY4j5sJ9C2NGObVDWW9IyJS9tFSdvFVSepjO098cQTC+++xjbb8p7vete7TlGcd8G4ygSF63RH3455beq32y7gYtWHWGu+TWAYkznOW6Z1ql1tO48++uhpS162CWv3ZUnD/gI3rGKZvPgM/u7v/u4wb0WNdfp6HADEUqLjeSnafAyrTvY7NTqjXy533M7YfiyjOe/zPPWYyniujKnwYuqzu+qcF2P/qSUMm0u/b61dbcLjsWX7/LbVT9qyhua8OOyn1/sJbIaAC7HN6Aet2B4Bx8z29JWW7qaA8GKL+3UqvHj44Yfn3kXd1fCi78JseBHL7GbDnVa+XRz/8Ic/HH75l395aCFO/Pz6668fvvGNbwxvectbDn6+xR+1pU2fF168973vHe64445h2XKeSytQYOsFjLzY+i60Azso4EJsBzvVLh2rgGPmWHltnMBSAeHFUqLNLdBOoDFMPV4xiuBrX/vabETE1BDwqWf92x3auJMcd1PjzmvczY5XW/q2v+vaysXF6GFGXoyX4u3v5PZ3rvs2xKiIV7ziFcPtt98+9Ev3tnZEm9vyu3HH+Jprrhmuuuqq4aGHHprtT7vLHP+On/cjLz7wgQ8MN9xww2z/Yx9/9md/drjgggsOgoc2uqUfZdL2IdoUd6TvvPPO4ayzzhrCK0YexKttY3wnf7xfZ5xxxkE7e4t+yeF+n8d3z3/0ox8djHCY11/xOfnMZz4zRF3333//bD9jdESYRfv7USJRtn0Oxm4xJ8Ldd9998BmJyTGbc7Txj/7oj2afw9/7vd8b/viP/3j233Dx2m+BqvBiv5XtPQECBAgct8Bzzz133FXYPgECcwSEF1v80ViU/i4LL2K34+L08ssvn12g9ysM3HPPPQePjYznFejLxYXv+eeff9rIglUeG+m386UvfWl2AR0X1k899dTsv/HoS7xiBMN11103+3eEDZdeeulsZElfR9+O8SMk8b4o3+/HJZdcclp4ce+99w79YyMRYky147Wvfe3BJ6aFF69//euHuNhvj0e0oCMevQmfFqJcdNFFM6t+zoC2X9dee+1p/RAu41Uz2v70/Rv1feITn5i197zzzpv1a5jEqJKxc/wuwpFm8OSTTx6EVq2ucGiTXL785S+fWUVg0UKKaEP0T99vUe9xPRa0xYeopncCFXerKurQqQR2ScAxs0u9aV8qBBwzFcrqIDBfQHixxZ+OZeFFuzve72IbOTGe36G/oP7yl798EF6MJx/sR2986EMfmhtetBEQfd1t5EC7II4wIi6w+7kJ+nk7+rv140kC+8cU7rvvvoN2zBsN0s9zsUp4Ee1uF/BhFSMp2siKtk/9NuNxnRZUtMClb1fvMH7Eol8No42OiHBgPFqhzUVy8803nxIU9NuL8KcPPPr+ikBmHIa08Kkv98ADDwyPPPLILKCINrQ2xeMf0dYWwvT1Ci+2+ERS1PSKL3wVdRRxqYZAiYBjpoRZJTsk4JjZoc60K1spILzYym77v0YvCy+iTIw6aK9FF7L9heg4vGiPD7TttIBh3sX5spEX49EBsd0+dOgflegnDOwn01wlvBhPMhj19KMOlk3YGW2KkR5tksLxxKR9eBHbjgDjyiuvPJj0sw93+scwomwzjH/3+9WHF/G7/rGX+P943CTq6AOPcXgxr7/6US0RSvTm4/BiHD5F6BVhxnve857ZCJgInYQXW3zyOIGmV3zhq6jjBOhUSeDYBBwzx0Zrwzsq4JjZ0Y61W1sjILzYmq46vaGHCS8yIy/a4xPjkQDrznmxaOTF1JwSLWToL9j7kRhTIy/Gj2pkR17EnB4RJHzhC1+YwcejK/0jI/GzfptxcR/ti1Di2WefPZg0NUY2XHHFFac8yjEeeTEvvIjHd/oREKuOvJjXX+NRHYvCi6nVZvr9FV5s8YnjhJpe8YWvoo4T4lMtgWMRcMwcC6uN7rCAY2aHO9eubYWA8GIrumm6kYcJL2KL68x5ERfQDz744GwEw6LHRvqL7qhrvOTjvDkv+lEfbdWOfs6LNjfEsjkvxuFFG/mQGXnR5sk499xzDx6h6HtiKhCJyUHbhJstHBiHF/0cFbG9VcKLtpTlhRdeeNpqMovmvOj7q5/HY9HIi37OiwhsWl+1x0aMvNjik8YJNr3iC19FHSdIqGoCRy7gmDlyUhvccQHHzI53sN3beAHhxcZ30fwGHia8iJEFi1aliGBjarWRqVU+xo9TLHtsJC6I5602Mv75+LGRtirHvFVP2iMn8b5oa79ySkj2E2iOHxtpgU78NwKIRSuqRJnxSIQ+KBi/t38U5g/+4A+Gr3/966esdhIThrbRHm3kRAss2goob3vb24YvfvGLsyCl/92NN944216bMLTv176/Vh150drR7Jr1mWeeeTDR6XjkRRtN8+ijj84mDh2PUtniw0zTj0ig4gtfRR1HxGEzBDZCwDGzEd2gEVsk4JjZos7S1J0UEF5scbfu0wl0vMxrRbeNR4tU1LlOHeNJVdfZhvcQOG6BivNVRR3H7WT7BCoFHDOV2uraBQHHzC70on3YZgHhxRb33j6dQKvDizZ6oT2mskkfk/HolH50xSa1U1sI9AIV56tWR3vkK0Yt9a/2SFf8bGpC3/h5G3HWvy8Cwraccz+qKB6pGq/qFMdjTJQcKxTFY2Tj12WXXTb5GJpPC4GTEKg4Lk9iv9RJ4LgEHDPHJWu7BFYTEF6s5rSRpZxAN7JbNIoAgQmBivPVOLy46aabZivj9GFFPFIWPxsvvxxlWujRv6/NvRO/v+CCC4b+MbkIL+LVr+o03vWpenxACGyKQMVxuSn7qh0EjkLAMXMUirZBYH0B4cX6dif+TifQE+8CDSBAYEWBivPVovAimtnPx/PYY4+dsuRw243xKkoRPsQoipgjJ97f5qeJ8sKLFTtfsY0VqDguN3bnNYzAGgKOmTXQvIXAEQoIL44Qs3pTTqDV4uojQGBdgYrz1bLwon/8bLyqTuzX1MiLCCziFSMuIqy49NJLD0ZzCC/W/TR436YIVByXm7Kv2kHgKAQcM0ehaBsE1hcQXqxvd+LvdAI98S7QAAIEVhSoOF9lw4sYTfH444+fsgdthaP4Yb9cc8x1EXNfPPzwwwePiUzNedHPqxHb8NjIih8QxU5EoOK4PJEdUymBYxJwzBwTrM0SWFFAeLEi1CYWcwLdxF7RJgIEpgQqzlfLwot+ZZ7xyIupVXumJvUcL9Mc+2rOC5/5bRWoOC631Ua7CZzU3zLyBAjMFxBebPGnw5eOLe48TSewZwIV56tl4cWyOS9iJMV3v/vdg9VAph4L6efE8NjInn2Id3B3K47LHWSzS3ss4JjZ48636xshILzYiG5YrxFOoOu5eRcBAvUCFeerReFFG0Wx6mojMcLizW9+89CvPBJqfQASv4uXkRf1nyc1Ho1AxXF5NC21FQKbIeCY2Yx+0Ir9FRBebHHfO4FucedpOoE9E6g4X43Di69+9aunKPfzUcybiyLCiQcffHB4+9vfPvz5n//5EO950YtedLCdPgSJ+S+EF3v2Qd6x3a04LneMzO7suYBjZs8/AHb/xAWEFyfeBes3wAl0fTvvJECgVqDifFVRR62a2ggcr4Bj5nh9bX33BBwzu9en9mi7BIQX29Vfp7TWCXSLO0/TCeyZQMX5qqKOPes2u7vjAo6ZHe9gu3fkAo6ZIyc90g0+99xzs6XNb7/99uF1r3vd8Jd/+ZfDueeeO7eOZ599dvbo5yc/+cnhG9/4xmyk5WWXXTa8+93vHs4777wjbZuNHY2A8OJoHE9kK06gJ8KuUgIE1hCoOF9V1LHGrnsLgY0VcMxsbNdo2IYKOGY2tGN+3Kxvfetbw1ve8pbh6aefnk3AHcHEb/7mb042OpZDf8c73jE88MADw0UXXTS86lWvGr75zW/Oljh/5StfOXzqU58aXvrSl272Du9h64QXW9zpTqBb3HmaTmDPBCrOVxV17Fm32d0dF3DM7HgH270jF3DMHDnpkW7w/vvvH2IlsBtuuGH4whe+MPzCL/zC8IlPfGL4iZ/4idPq+Yu/+Ivh+uuvH66++uohJvP+yZ/8ySFGbsSojfe///3DddddN3zkIx8Zos+9NkdAeLE5fZFuiRNomswbCBA4IYGK81VFHSfEp1oCxyLgmDkWVhvdYQHHzOZ2bjwCEkHEf/zHfwx/9md/NvzJn/zJ8G//9m/DZz/72eHVr371KQ1vZad+H6M23vrWtw7f//73h7/6q78aXvziF2/uTu9hy4QXW9zpTqBb3HmaTmDPBCrOVxV17Fm32d0dF3DM7HgH270jF3DMHDnpkW3wX/7lX4bf+I3fGC644ILh3nvvHT7zmc/MRmHceuutwy233HJKPf/5n/85XHHFFcNP//RPDzEC4+yzzz7l9zFvxqc//enhvvvuG97whjccWRtt6PACwovDG57YFpxAT4xexQQIJAUqzlcVdSR3W3ECGy3gmNno7tG4DRRwzGxgp/y4Sbfddtvwvve9bzbPRcxlEfNX/Pqv//rwUz/1U6dN3NmWPb/00ktn5cevWDY9Ju2MYOPKK6/c3J3ew5YJL7a4051At7jzNJ3AnglUnK8q6tizbrO7Oy7gmNnxDrZ7Ry7gmDly0iPZYEzO+Wu/9mvDD3/4w1lQ8TM/8zPD//7v/w6/8zu/M5uQczxx59/8zd/MRmnEZJ5T4UU8LvKrv/qrs7kwYhSG1+YICC82py/SLXECTZN5AwECJyRgwqsTglctAQIECBypQEzq6LVZAn/7t387m+8iljn90z/904MJOtvPf+mXfmn2KEmMwojX5z//+eHNb37zbITGVHjRfi+82Kx+jtYILzavT1ZukfBiZSoFCRA4YYGK81VFHSfMqHoCRyrgmDlSThvbAwHHzOZ1cj/CIuapiFCivZ588snZoyP/9V//NZu/4hd/8RdnvzLyYvP6cdUWCS9WldrAck6gG9gpmkSAwKRAxfmqog7dS2CXBBwzu9Sb9qVCwDFToZyro02++bWvfW3hG2+88cYh5rKIPjTnRc54k0oLLzapN5JtaSfQb3/727OU8atf/eopW2hDoeb9PoZWRUJ51llnHbyvDZNqP5g3XCrKxdrHn/vc52bi6pVbAAAgAElEQVRFp+p/yUteMpvp97Wvfe2szLxt/+AHPxiuuuqq4aGHHjpNYKqN40Kx3ZhUp6+rlVl1f+JkFq/W5nC56aabZj/rh5PFyS4mA4qhZy960Yvm9tiq5aJ90e5xPyQ/CooT2HiBii98FXVsPLQGEkgIOGYSWIoS+PGQdY+NbNZH4c477xxuuOGG4fWvf/3wspe97LTGPfPMM8Pf/d3fDeeee+7BfBgxEuNXfuVXZt/lp76DW21ks/q4b43wYnP7ZmnLxuFFXGy/6U1vmr2vBQKxTvFrXvOaWbgw9fuLLrroYCKauIB/8MEHZ4FEHMxtG+ecc85pz4NNhRf99pcFDG3bff3xnrjof+c73znccccdB6HHIojYzvXXXz8rEksj9ZPqjEONeXXGe/vw4uGHH57tbyyvJLxY+jFUgMBKAhUXSRV1rLSzChHYEgHHzJZ0lGZujIBjZmO6YtaQp59+eohrnX//938/5bGQvpXPPvvsbD6MmITzYx/72Oy64X/+53+Gt7/97cO//uu/Dp/97GeHV7/61Qdv+f73vz+byPO///u/Z+958YtfvFk7veetEV5s8QdgUXgRuxUX3+eff/5sHeNxeNEu2J944onZhXqMzogDO9ZCbiMlosy8n2fCi0VBxXgUwzi8WDaCIX5/1113zU5cEUC0ERGZOmM/Y3/i9cIXvnCIYWdht0p40YadPf7447OQaDwSpf3sO9/5zqyNfbkIiIy82OIDUNNTAhVf+CrqSO20wgQ2XMAxs+EdpHkbJ+CY2awu+Yd/+IfZUqY/93M/NxvJ/PznP3+ygffff//se/3rXve6g3Jx/RMjt2P0d4wmj8k8Y1TN7bffPrz//e8frrvuutnPTTi+WX0uvNis/ki1ZlF40R4VidEQq4y8mHcRPS8EyIQXmdEUmbItgIn/xoiLOCnFes0x+iS7nSn4ZeFFvCdCocsvv/yg/liqKYafPfbYYwePl7RybWRKbLeV+9KXvuSxkdSnXuFtFaj4wldRx7b6azeBKQHHjM8FgZyAYybndZylI2iI7/8RNrQRFfPq+9a3vjW85S1vGeKmbUzc+YY3vGE2auOaa66Z3XiMkeCvetWrhm9+85uza4hXvvKVw6c+9anhpS996XHugm2vISC8WANtU96ybM6LNl/FsjkxYn8WjQBoIzjGj2Qsm/OizVfRX8gvmici2pEJHdojI5GMxmiR2If2yMeyERur9GHs9913331a0X40RT9ypG97vKn9LuYiaVax/33b4nfmvFilN5TZdoGKL3wVdWx7P2g/gV7AMePzQCAn4JjJeR1n6RZIxGMh8ejHK17xirnV9UFHP3FnzIcRI7f/+q//evjGN74xe2w+rl9iRMZ55513nM237TUFhBdrwm3C25Y9NtLa2I/CmDcq4SjCi3lzXmQCiWzZ9ihG29c+WMjMnTHVn8tGXoxDif4Rm3F40S/bFL9rE4M+9dRTwotNOJi04dgFKr7wLQt0+wmA+0e++p1v55AWtMaXmvgS015xh6bNLRQ/G084PH7/vLXk23k5thHbjPPJ1Jrz43L9I2hT7W6/v/baa0+ZA6gPoaeC2X6t+3mBdztvxRe6qUmaxzbH/qFSwaEFKo7LQzfSBghskIBjZoM6Q1P2UkB4scXdvm54Ebs8npxzlTkvYphVzKERIzAyj43Me/Qk6mwBQ7tQyIQXU+FC+4Iew8DiGbbxhKBTdc77CCwLL+IiYdWRF/NGV5jzYosPQE1PCVR84Vt0Thyfh1Y510ydJ/v5g9pFfnt0LEDGEwXH/3/4wx8ezj777FNWKRr/PMKLVcrFeWdRMNtCmXjut02+HO0ahxfxs7aS0nhy5nHgPe7oqd+3emPEXx/upD4kCpcLVByX5TulQgLHKOCYOUZcmyawgoDwYgWkTS1ymPBiKlBYttpI/L5N8Bn/fuSRR2bzO8SQq6kJQXu3eSt/jFcyWeWCIrY778t1366YT6JfQnXR6ilTfbwsvIj3rDPnRe/ssZH1j65VlgBednf9Qx/60KwB/XK47UJv6uertHZc57zlhqc+X+Ptz3v8qT8W53122yNP45EAffv6u+2L2t2PPujfs4pHK1PxhW/ZObF3W3aumXeO6QPHe+655+Cc2Fv09bTyZ5xxxvDGN77x4MI++v8FL3jB8JWvfGUWarRzwbJyq4QXEarGdvrz66LwItree7SRFfNG061y/u2X4M58TpStFag4Lmv3SG0EjlfAMXO8vrZOYJmA8GKZ0Ab/ftkX9db0RV/C+4v7KN+GOLf39hde/fDoNnw45pqYdxEZ2+iHEY+3PXURtOpqI/3Ij34ejfHdv1XqnNfFy8KLNn/F1Coii4Z693ZGXqx/gE19rrN316c+R8vuOi9q8XgelnkXyPMeJei3Pe8OegsS5oUI/dwv4yCm37dLLrnkYHRSjFSKpcPa/DHj+VtiRZ9YRz1eUyOaVunFii98RznyYt45pu1rvxz1eKRB/94WSsSzuN/73vcOVneK0RNx7ojgrA8vlpVbNby47bbbhltuueVgBall4cWy5bX7Pp53jBzFXEOrfJaUOTqBiuPy6FprSwROXsAxc/J9oAX7LSC82OL+dwLd4s7T9EMLLLr720YIrXN3vb/wjJEZ7VGpdRo8NcKpPboU2xuPPGp1tJFKMalU/LstAdxWqukvcJe1q9+f8aNO/Uil/k75vEe9oq5loz7mtafifLVszotFI01au1uZZcHiovBialLe6Lu2nHMEGjG5cCzv1k/sG4+XLSs3b86L1u6+7gceeOBghFyMomif5algdiq8iHb2rzZnyLzRdsKLZUfj5v2+4rjcvL3WIgLrCzhm1rfzTgJHISC8OArFE9qGE+gJwat2IwSOYuRF7Mj4Qm5qdZ11d3iqjW37EbDEa/zISl/Xuo+N9NsYP0rVz78yb3TBvGBoUaixzKjifDVv5MVUiLUs2DrMyIup8OKOO+4Ybr755tnoljZ/0MUXX3xaeLGs3KojLyLwOvPMM2cjZWKER4Qli8KLZctr9/27aDRfv7LSss+E35+8QMVxefJ7qQUEjk7AMXN0lrZEYB0B4cU6ahvyHifQDekIzTgRgVWWAJ4350V/B76/wx53lK+++uqDofaH3bFxMBLtaY9gxJ3w4w4vxhfo45EW8y7Qp+7Mt0ddxnNorGpUcb5a9NjIeE6fZeHFokcjWh9m5ryI+YGifDw68vWvf332GYvXeOTFsnKZ8CIebWt9fO655x5MYDzvkbg2Eag5L1b9VG9/uYrjcvuV7AGB/y/gmPFpIHCyAsKLk/U/VO1OoIfi8+YtF1hlCeBlF6hB0K+08+Uvf/lgmP1hJxxsj3jExWhsazwfxnFO2Bn7NbX6w/hRiKnwYtzu8cdk2YiEeR+rivPVUc55Efsxb7WRtrrIqquNtNEuMYlwTPLbHr947LHHJsOLReWy4UXsR1satc1hNP7sWW1ky0+Gh2h+xXF5iOZ5K4GNE3DMbFyXaNCeCQgvtrjDnUC3uPM0/dACU3fGs3fXoxHtwi3mkYg74jHE/jBLPc5b1WaVUSBjlHUfGxmv7tO2O95ePxIjysQjBvPm4ei3sWipzk0NL6JdvUv8f5tst29zP6FuCzBiYuP2Gq8e009kHGXGI1PGI3v6FYqmHi/pV3BqIUlfbt6cF63d0YZ+Cef4/3HI0sKMfr/70UjLJmGOfYz9GM+J0U/QfOgD3AZKBHyPKGFWyQ4JOGZ2qDPtylYKCC+2stv+r9FOoFvceZp+aIGjmvOiv0Bd95GIfmdWGVER5Vcpt054sWi0ybzVRt71rnfNbc94tMa8ST6XdWjF+aqijmX76fcEtknAMbNNvaWtmyDgmNmEXtCGfRYQXmxx7y8aIt0uyNqqC0e5m+O7gOO7fFN1tQugmIyuLREYF4rZ+QXmLTE5Xpq0Xz71KPd9k7bVr/oQF8KXXnrp8Pjjjw/H0eebtN+tLassARxlV7m73kZFhGE/gWZ28s55d6zHd+vH4UX/6EosP9xeq4YX4xUm+pECsa0+lOlHgLS77cva3ZZnHW8r87mo+MJXUUdmn5UlsOkCjplN7yHt2zQBx8ym9Yj27JuA8GKLe/ykwouebNWl8aaWHZx3wbaoS2I7H/7wh4ezzz77YPnIKD/v51vcvUubPi+8iDfGnXQvApskUPGFr6KOTTLVFgKHFXDMHFbQ+/dNwDGzbz1ufzdNQHixaT2SaE82vGijFqKKNmFcTCTY/7zdoW1L7MU8APfff//sjn67e9wCiw984APDDTfcMHvuub0v/h3PQrdXewZ6PPIiysTvHnrooSGe1f6t3/qt4Z/+6Z+GNrlhvypDP3Fi284ZZ5wxvPGNbzyYmyDukL/gBS8YvvKVrxyEGv3d4vY8+Mtf/vKD5/rvvvvuWTPHK09MtT/Kte3FtuLueLSh3aXvnyEfO4Xh7bffPtvP+F0sJRhOfb393fD+Lnnsb6vj7//+72fbiMn/nnrqqQPn2M4FF1wwvPKVr5z9PF6HmbMh8RFUlMDKAhVf+CrqWHmHFSSwBQKOmS3oJE3cKAHHzEZ1h8bsoYDwYos7PRNe9CsPXHLJJQcX8DfffPMpj27EBXq8rrnmmlmZJ598chYy9DPcx+/boyLx8/7f/UR+/bPxMXt+XHTPe2wklubrHyFp7RiPIGjhRQQCseRgXNjHCI72KEr8/7333jsLByIkiLbHIyRtfoH4WexXvCIoiXbFEPtoW7zmtT9WBRgvI3jhhRfO6u/3M8rFYwoRUrzwhS+c/fvaa6+djYSINjz88MOn1TVelrBf7aGtOhD70fdbq3dfHhHZ4sNU038sUPGFr6IOHUpglwQcM7vUm/alQsAxU6GsDgLzBYQXW/zpGIcX45nfY9fa3f15SyR+7GMfG9773vcOt95662w0QXu1GfQvuuiig0cQ2vP/F1988WR4MZ5noq9zWXgRdbd5G+Ii/frrrx+uu+66U9oUbWvbjLIRGrSgIkKBK6+88rRZ9tv+tEcsWnjR9mvRoyt9+++5555T5pKYt72or3cahyEtbOjrjdESfdAyXoGg/13/qEj/7y3+GGv6nghUfOGrqGNPustu7omAY2ZPOtpuHpmAY+bIKG2IwFoCwou12DbjTZmRF+MVAuYtvdceJ4k9jBEK/bKRq4QX4yX42vZWCS8iLGghxF133TXceeedQ//ISB9exAiOGDUSAcd99903nH/++UMfqrTHXuKxlPaKIKeFF22/xuHFvPbfdNNNs820RzjG4UVfTwuNxmFKHzaMw4v+UZV4f/94SIwKaY/TCC8249jTirxAxRe+ijrye+4dBDZXwDGzuX2jZZsp4JjZzH7Rqv0REF5scV9nwot5Iy/aYxWNYd6Ign4kxryRF+NHNbIjL9rjH3HhHvNXTE06OR4NEY+OfP3rX5+NHIlXe4TlgQceGB555JHTLvoXhRfjERCZkRd9yNMsx5OZLgov+oCi/0hOLVPZRm8YebHFB+8eNr3iC19FHXvYdXZ5hwUcMzvcuXbtWAQcM8fCaqMEVhYQXqxMtXkFM+HFvDkvpkYHxJ62OS/i33HXv5/zoQ8J+jkv+vCijXxo719l5EWU7eeF6B9jafrjQCRGLLTRHdHGqfDimWeemU1uGXNUrBpejNu/6pwXra7LL7/8lJEg8UjNvPBiPOdFlHvwwQdn83WEqZEXm3fsaVFeIM5XXgQIECBAYNsFnnvuuW3fBe0nsLUCwout7bphyIQXsZvzVhvpV+UYPzZyzjnnDG1VjrZySD+iILbbHnmIkOM973nPwQoiN95446zONi/FeMLONgHlo48+OrtAj7BiaknVvov63/dBQYzSmGpXWwnlbW972/DFL37xlAlDY0WO/vGNthJJWwGlb38LH2Jyz1gN5HWve93w7LPPTq420uYZWXXkRex3v9pIe2RkyqMPQFp/9quWbPHHWdN3XKDiblVFHTveTXZvzwQcM3vW4Xb30AKOmUMT2gCBQwkILw7Fd7JvPs4TaHtMZOpxiOPc6zavxtQjI8dZb2bbU5OZZt6vLIF9FDjO81XzrKhjH/vOPu+ugGNmd/vWnh2PgGPmeFxtlcCqAsKLVaU2sNxxnkCrw4tWXzC3ySk3ibwftRLtMtphk3pHW7ZB4DjPV8KLbfgEaOMmClQcl5u439pEYF0Bx8y6ct5H4GgEhBdH43giW3ECPRF2lRIgsIZAxfmqoo41dt1bCGysgGNmY7tGwzZUwDGzoR2jWXsjILzY4q52At3iztN0AnsmUHG+qqhjz7rN7u64gGNmxzvY7h25gGPmyEltkEBKQHiR4tqswk6gm9UfWkOAwHyBivNVRR36mMAuCThmdqk37UuFgGOmQlkdBBZ/n4z1656z7M/2fUycQLevz7SYwL4KVJyvKurY1/6z37sp4JjZzX61V8cn4Jg5PltbJrCKgJEXqyhtaBkn0A3tGM0iQOA0gYrzVasjlkCOJZxjqeT+1Sbabb+/6aabhlgyub36pYj75Yvb72OZ5FgyOpZOjt+/853vnC2/HMsa96+pVZP6JamjbFt6un9fTAwcyzG3paOn2tDKf/SjHx0uvvji4X3ve99sOepoU7za5Mex5HO8+jbH/0c7PvGJTxzUET/rl4we74uP8m4LVByXuy1o7/ZNwDGzbz1ufzdNQHixaT2SaI8TaAJLUQIETlSg4nw1Di/6cKJfQSku6CPcWBZejMOJCCXi9fGPfzwVXkRg8OCDDx4EH1PhSbTv+uuvn23/ggsuGMbLRcc2HnnkkVNWY4pwow8v2nYvv/zyg/ePA5EWovQrJgkvTvTQONHKK47LE91BlRM4YgHHzBGD2hyBpIDwIgm2ScWdQDepN7SFAIFFAhXnq0XhRbStjYi44oor1govIgiIURGxnPNjjz220siLeaM8+m2dddZZszDkrrvuGt761rfORkf0oymi7auEF/3Ikb4v+p+37Tz55JMH4Y3wYn+P3Yrjcn917fkuCjhmdrFX7dM2CQgvtqm3Rm11At3iztN0AnsmUHG+WhRe9CHCYUZenH/++bNRDas+NhIhxUc+8pGDURfzuj1ChXjFtiNkufTSS097pGXRyIszzzxzuOqqq2bhR/8oTGyzb8MDDzwwPPHEE7PttyDmmWeeGa6++urh1ltvPe0RmD37mO7d7lYcl3uHaod3WsAxs9Pda+e2QEB4sQWdNK+JTqBb3HmaTmDPBCrOV8vmvIh5IiIcWHfOi8suu+zgsY1MeNFCghhhMfVqj4xcd911s/AgwoaHH3549nhKey0bebEovOgfL2nhRQQqEXZcdNFFQ4xEEV7s2QH5492tOC73U9Ze76qAY2ZXe9Z+bYuA8GJbemqinU6gW9x5mk5gzwQqzlfLHhtp5KuGF+M5L/oRDN/5zndWemxklZEXyyYHjXYfdXjR5u2IOTNuu+224ZZbbjHyYs+OydjdiuNyD1nt8g4LOGZ2uHPt2lYICC+2opumG+kEusWdp+kE9kyg4ny1anjRT97ZP2KxbELOfm6I6L5VVhuZF5S0OS7uvPPO2dwT8epHWoxXLFkWXsRqI6vOeRGPjbS6op7vfve7w49+9CPhxZ4dk8KLPexwu3xogYq/ZYdupA0Q2GEB4cUWd64T6BZ3nqYT2DOBivPVquFF0LeL9ph8s02YGfNFxKMlEWhMPRayzsiLqGveaiOxKsiiyUP7OS5WCS9WXW2kDy/ae55++ulTlk/ds4/n3u5uxXG5t7h2fCcFHDM72a12aosEhBdb1FnjpjqBbnHnaTqBPROoOF9lwosWYNx9990HPfG5z33uYLLLqUc5XvKSlxxc4C/6/X333Te0iT3bxtsSpe3/2/wb8x4radtvYcoq4UVsu40qeeihh2ZVxeSksV8xMqMFKX14ET8bL6e6Zx/Nvd7diuNyr4Ht/M4JOGZ2rkvt0JYJCC+2rMP65jqBbnHnaTqBPROoOF9V1LFn3WZ3d1zAMbPjHWz3jlzAMXPkpDZIICUgvEhxbVZhJ9DN6g+tIUBgvkDF+aqiDn1MYJcEHDO71Jv2pULAMVOhrA4Ci79PPm8Yhueee+45Tlsm4AS6ZR2muQT2WKDifFVRxx53oV3fQQHHzA52ql06VgHHzLHy2jiBpQJGXiwl2twCTqCb2zdaRoDAqQIV56uKOvQrgV0ScMzsUm/alwoBx0yFsjoIzBcQXmzxp8MJdIs7T9MJ7JlAxfmqoo496za7u+MCjpkd72C7d+QCjpkjJ7VBAikB4UWKa7MKO4FuVn9oDQECi5Py43480TnRJ5BATsAxk/NSmoBjxmeAwMkKCC9O1v9QtTuBHorPmwkQKBSoOF9V1FFIpioCxy7gmDl2YhXsmIBjZsc61O5snYDwYuu67P832Al0iztP0wnsmUDF+aqijj3rNru74wKOmR3vYLt35AKOmSMntUECKYGD8CL1LoUJECBAgAABAgQIECBAgAABAoUClkotxFYVAQIECBAgQIAAAQIECBAgkBPw2EjOS2kCBAgQIECAAAECBAgQIECgWEB4UQyuOgIECBAgQIAAAQIECBAgQCAnILzIeSlNgAABAgQIECBAgAABAgQIFAsIL4rBVUeAAAECBAgQIECAAAECBAjkBIQXOS+lCRAgQIAAAQIECBAgQIAAgWIB4UUxuOoIECBAgAABAgQIECBAgACBnIDwIuelNAECBAgQIECAAAECBAgQIFAsILwoBlcdAQIECBAgQIAAAQIECBAgkBMQXuS8lCZAgAABAgQIECBAgAABAgSKBYQXxeCqI0CAAAECBAgQIECAAAECBHICwoucl9IECBAgQIAAAQIECBAgQIBAsYDwohhcdQQIECBAgAABAgQIECBAgEBOQHiR81KaAAECBAgQIECAAAECBAgQKBYQXhSDq44AAQIECBAgQIAAAQIECBDICQgvcl5KEyBAgAABAgQIECBAgAABAsUCwoticNURIECAAAECBAgQIECAAAECOQHhRc5LaQIECBAgQIAAAQIECBAgQKBYQHhRDK46AgQIECBAgAABAgQIECBAICcgvMh5KU2AAAECBAgQIECAAAECBAgUCwgvisFVR4AAAQIECBAgQIAAAQIECOQEhBc5L6UJECBAgAABAgQIECBAgACBYgHhRTG46ggQIECAAAECBAgQIECAAIGcgPAi56U0AQIECBAgQIAAAQIECBAgUCwgvCgGVx0BAgQIECBAgAABAgQIECCQExBe5LyUJkCAAAECBAgQIECAAAECBIoFhBfF4KojQIAAAQIECBAgQIAAAQIEcgLCi5yX0gQIECBAgAABAgQIECBAgECxgPCiGFx1BAgQIECAAAECBAgQIECAQE5AeJHzUpoAAQIECBAgQIAAAQIECBAoFhBeFIOrjgABAgQIECBAgAABAgQIEMgJCC9yXkoTIECAAAECBAgQIECAAAECxQLCi2Jw1REgQIAAAQIECBAgQIAAAQI5AeFFzktpAgQIECBAgAABAgQIECBAoFhAeFEMrjoCBAgQIECAAAECBAgQIEAgJyC8yHkpTYAAAQIECBAgQIAAAQIECBQLCC+KwVVHgAABAgQIECBAgAABAgQI5ASEFzkvpQkQIECAAAECBAgQIECAAIFiAeFFMbjqCBAgQIAAAQIECBAgQIAAgZyA8CLnpTQBAgQIECBAgAABAgQIECBQLCC8KAZXHQECBAgQIECAAAECBAgQIJATEF7kvJQmQIAAAQIECBAgQIAAAQIEigWEF8XgqiNAgAABAgQIECBAgAABAgRyAsKLnJfSBAgQIECAAAECBAgQIECAQLGA8KIYXHUECBAgQIAAAQIECBAgQIBATkB4kfNSmgABAgQIECBAgAABAgQIECgWEF4Ug6uOAAECBAgQIECAAAECBAgQyAkIL3JeShMgQIAAAQIECBAgQIAAAQLFAsKLYnDVESBAgAABAgQIECBAgAABAjkB4UXOS2kCBAgQIECAAAECBAgQIECgWEB4UQyuOgIECBAgQIAAAQIECBAgQCAnILzIeSlNgAABAgQIECBAgAABAgQIFAsIL4rBVUeAAAECBAgQIECAAAECBAjkBIQXOS+lCRAgQIAAAQIECBAgQIAAgWIB4UUxuOoIECBAgAABAgQIECBAgACBnIDwIuelNAECBAgQIECAAAECBAgQIFAsILwoBlcdAQIECBAgQIAAAQIECBAgkBMQXuS8lCZAgAABAgQIECBAgAABAgSKBYQXxeCqI0CAAAECBAgQIECAAAECBHICwoucl9IECBAgQIAAAQIECBAgQIBAsYDwohhcdQQIECBAgAABAgQIECBAgEBOQHiR81KaAAECBAgQIECAAAECBAgQKBYQXhSDq44AAQIECBAgQIAAAQIECBDICQgvcl5KEyBAgAABAgQIECBAgAABAsUCwoticNURIECAAAECBAgQIECAAAECOQHhRc5LaQIECBAgQIAAAQIECBAgQKBYQHhRDK46AgQIECBAgAABAgQIECBAICcgvMh5KU2AAAECBAgQIECAAAECBAgUCwgvisFVR4AAAQIECBAgQIAAAQIECOQEhBc5L6UJECBAgAABAgQIECBAgACBYgHhRTG46ggQIECAAAECBAgQIECAAIGcgPAi56U0AQIECBAgQIAAAQIECBAgUCwgvCgGVx0BAgQIECBAgAABAgQIECCQExBe5LyUJkCAAAECBAgQIECAAAECBIoFhBfF4KojQIAAAQIECBAgQIAAAQIEcgLCi5yX0gQIECBAgAABAgQIECBAgECxgPCiGFx1BAgQIECAAAECBAgQIECAQE5AeJHzUpoAAQIECBAgQIAAAQIECBAoFhBeFIOrjgABAgQIECBAgAABAgQIEMgJCC9yXkoTIECAAAECBAgQIECAAAECxQLCi2Jw1REgQIAAAQIECBAgQIAAAQI5AeFFzktpAgQIEL09B4gAACAASURBVCBAgAABAgQIECBAoFhAeFEMrjoCBAgQIECAAAECBAgQIEAgJyC8yHkpTYAAAQIECBAgQIAAAQIECBQLCC+KwVVHgAABAgQIECBAgAABAgQI5ASEFzkvpQkQIECAAAECBAgQIECAAIFiAeFFMbjqCBAgQIAAAQIECBAgQIAAgZyA8CLnpTQBAgQIECBAgAABAgQIECBQLCC8KAZXHQECBAgQIECAAAECBAgQIJATEF7kvJQmQIAAAQIECBAgQIAAAQIEigWEF8XgqiNAgAABAgQIECBAgAABAgRyAsKLnJfSBAgQIECAAAECBAgQIECAQLGA8KIYXHUECBAgQIAAAQIECBAgQIBATkB4kfNSmgABAgQIECBAgAABAgQIECgWEF4Ug6uOAAECBAgQIECAAAECBAgQyAkIL3JeShMgQIAAAQIECBAgQIAAAQLFAsKLYnDVESBAgAABAgQIECBAgAABAjkB4UXOS2kCBAgQIECAAAECBAgQIECgWEB4UQyuOgIECBAgQIAAAQIECBAgQCAnILzIeSlNgAABAgQIECBAgAABAgQIFAsIL4rBVUeAAAECBAgQIECAAAECBAjkBIQXOS+lCRAgQIAAAQIECBAgQIAAgWIB4UUxuOoIECBAgAABAgQIECBAgACBnIDwIuelNAECBAgQIECAAAECBAgQIFAsILwoBlcdAQIECBAgQIAAAQIECBAgkBMQXuS8lCZAgAABAgQIECBAgAABAgSKBYQXxeCqI0CAAAECBAgQIECAAAECBHICwoucl9IECBAgQIAAAQIECBAgQIBAsYDwohhcdQQIECBAgAABAgQIECBAgEBOQHiR81KaAAECBAgQIECAAAECBAgQKBYQXhSDq44AAQIECBAgQIAAAQIECBDICQgvcl5KEyBAgAABAgQIECBAgAABAsUCwoticNURIECAAAECBAgQIECAAAECOQHhRc5LaQIECBAgQIAAAQIECBAgQKBYQHhRDK46AgQIECBAgAABAgQIECBAICcgvMh5KU2AAAECBAgQIECAAAECBAgUCwgvisFVR4AAAQIECBAgQIAAAQIECOQEhBc5L6UJECBAgAABAgQIECBAgACBYgHhRTG46ggQIECAAAECBAgQIECAAIGcgPAi56U0AQIECBAgQIAAAQIECBAgUCwgvCgGVx0BAgQIECBAgAABAgQIECCQExBe5LyUJkCAAAECBAgQIECAAAECBIoFhBfF4KojQIAAAQIECBAgQIAAAQIEcgLCi5yX0gQIECBAgAABAgQIECBAgECxgPCiGFx1BAgQIECAAAECBAgQIECAQE5AeJHzUpoAAQIECBAgQIAAAQIECBAoFhBeFIOrjgABAgQIECBAgAABAgQIEMgJCC9yXkoTIECAAAECBAgQIECAAAECxQLCi2Jw1REgQIAAAQIECBAgQIAAAQI5AeFFzktpAgQIECBAgAABAgQIECBAoFhAeFEMrjoCBAgQIECAAAECBAgQIEAgJyC8yHkpTYAAAQIECBAgQIAAAQIECBQLCC+KwVVHgAABAgQIECBAgAABAgQI5ASEFzkvpQkQIECAAAECBAgQIECAAIFiAeFFMbjqCBAgQIAAAQIECBAgQIAAgZyA8CLnpTQBAgQIECBAgAABAgQIECBQLCC8KAZXHQECBAgQIECAAAECBAgQIJATEF7kvJQmQIAAAQIECBAgQIAAAQIEigWEF8XgqiNAgAABAgQIECBAgAABAgRyAsKLnJfSBAgQIECAAAECBAgQIECAQLGA8KIYXHUECBAgQIAAAQIECBAgQIBATkB4kfNSmgABAgQIECBAgAABAgQIECgWEF4Ug6uOAAECBAgQIECAAAECBAgQyAkIL3JeShMgQIAAAQIECBAgQIAAAQLFAsKLYnDVESBAgAABAgQIECBAgAABAjkB4UXOS2kCBAgQIECAAAECBAgQIECgWEB4UQyuOgIECBAgQIAAAQIECBAgQCAnILzIeSlNgAABAgQIECBAgAABAgQIFAsIL4rBVUeAAAECBAgQIECAAAECBAjkBIQXOS+lCRAgQIAAAQIECBAgQIAAgWIB4UUxuOoIECBAgAABAgQIECBAgACBnIDwIuelNAECBAgQIECAAAECBAgQIFAsILwoBlcdAQIECBAgQIAAAQIECBAgkBMQXuS8lCZAgAABAgQIECBAgAABAgSKBYQXxeCqI0CAAAECBAgQIECAAAECBHICwoucl9IECBAgQIAAAQIECBAgQIBAsYDwohhcdQQIECBAgAABAgQIECBAgEBOQHiR81KaAAECBAgQIECAAAECBAgQKBYQXhSDq44AAQIECBAgQIAAAQIECBDICQgvcl5KEyBAgAABAgQIECBAgAABAsUCwoticNURIECAAAECBAgQIECAAAECOQHhRc5LaQIECBAgQIAAAQIECBAgQKBYQHhRDK46AgQIECBAgAABAgQIECBAICcgvMh5KU2AAAECBAgQIECAAAECBAgUCwgvisFVR4AAAQIECBAgQIAAAQIECOQEhBc5L6UJECBAgAABAgQIECBAgACBYgHhRTG46ggQIECAAAECBAgQIECAAIGcgPAi56U0AQIECBAgQIAAAQIECBAgUCwgvCgGVx0BAgQIECBAgAABAgQIECCQExBe5LyUJkCAAAECBAgQIECAAAECBIoFhBfF4KojQIAAAQIECBAgQIAAAQIEcgLCi5yX0gQIECBAgAABAgQIECBAgECxgPCiGFx1BAgQIECAAAECBAgQIECAQE5AeJHzUpoAAQIECBAgQIAAAQIECBAoFhBeFIOrjgABAgQIECBAgAABAgQIEMgJCC9yXkoTIECAAAECBAgQIECAAAECxQLCi2Jw1REgQIAAAQIECBAgQIAAAQI5AeFFzktpAgQIECBAgAABAgQIECBAoFhAeFEMrjoCBAgQIECAAAECBAgQIEAgJyC8yHkpTYAAAQIECBAgQIAAAQIECBQLCC+KwVVHgAABAgQIECBAgAABAgQI5ASEFzkvpQkQIECAAAECBAgQIECAAIFiAeFFMbjqCBAgQIAAAQIECBAgQIAAgZyA8CLnpTQBAgQIECBAgAABAgQIECBQLCC8KAZXHQECBAgQIECAAAECBAgQIJATEF7kvJQmQIAAAQIECBAgQIAAAQIEigWEF8XgqiNAgAABAgQIECBAgAABAgRyAsKLnJfSBAgQIECAAAECBAgQIECAQLGA8KIYXHUECBAgQIAAAQIECBAgQIBATkB4kfNSmgABAgQIECBAgAABAgQIECgWEF4Ug6uOAAECBAgQIECAAAECBAgQyAkIL3JeShMgQIAAAQIECBAgQIAAAQLFAsKLYnDVESBAgAABAgQIECBAgAABAjkB4UXOS2kCBAgQIECAAAECBAgQIECgWEB4UQyuOgIECBAgQIAAAQIECBAgQCAnILzIeSlNgAABAgQIECBAgAABAgQIFAsIL4rBVUeAAAECBAgQIECAAAECBAjkBIQXOS+lCRAgQIAAAQIECBAgQIAAgWIB4UUxuOoIECBAgAABAgQIECBAgACBnIDwIuelNAECBAgQIECAAAECBAgQIFAsILwoBlcdAQIECBAgQIAAAQIECBAgkBMQXuS8lCZAgAABAgQIECBAgAABAgSKBYQXxeCqI0CAAAECBAgQIECAAAECBHICwoucl9IECBAgQIAAAQIECBAgQIBAsYDwohhcdQQIECBAgAABAgQIECBAgEBOQHiR81KaAAECBAgQIECAAAECBAgQKBYQXhSDq44AAQIECBAgQIAAAQIECBDICQgvcl5KEyBAgAABAgQIECBAgAABAsUCwoticNURIECAAAECBAgQIECAAAECOQHhRc5LaQIECBAgQIAAAQIECBAgQKBYQHhRDK46AgQIECBAgAABAgQIECBAICcgvMh5KU2AAAECBAgQIECAAAECBAgUCwgvisFVR4AAAQIECBAgQIAAAQIECOQEhBc5L6UJECBAgAABAgQIECBAgACBYgHhRTG46ggQIECAAAECBAgQIECAAIGcgPAi56U0AQIECBAgQIAAAQIECBAgUCwgvCgGVx0BAgQIECBAgAABAgQIECCQExBe5LyUJkCAAAECBAgQIECAAAECBIoFhBfF4KojQIAAAQIECBAgQIAAAQIEcgLCi5yX0gQIECBAgAABAgQIECBAgECxgPCiGFx1BAgQIECAAAECBAgQIECAQE5AeJHzUpoAAQIECBAgQIAAAQIECBAoFhBeFIOrjgABAgQIECBAgAABAgQIEMgJCC9yXkoTIECAAAECBAgQIECAAAECxQLCi2Jw1REgQIAAAQIECBAgQIAAAQI5AeFFzktpAgQIECBAgAABAgQIECBAoFhAeFEMrjoCBAgQIECAAAECBAgQIEAgJyC8yHkpTYAAAQIECBAgQIAAAQIECBQLCC+KwVVHgAABAgQIECBAgAABAgQI5ASEFzkvpQkQIECAAAECBAgQIECAAIFiAeFFMbjqCBAgQIAAAQIECBAgQIAAgZyA8CLnpTQBAgQIECBAgAABAgQIECBQLCC8KAZXHQECBAgQIECAAAECBAgQIJATEF7kvJQmQIAAAQIECBAgQIAAAQIEigWEF8XgqiNAgAABAgQIECBAgAABAgRyAsKLnJfSBAgQIECAAAECBAgQIECAQLGA8KIYXHUECBAgQIAAAQIECBAgQIBATkB4kfNSmgABAgQIECBAgAABAgQIECgWEF4Ug6uOAAECBAgQIECAAAECBAgQyAkIL3JeShMgQIAAAQIECBAgQIAAAQLFAsKLYnDVESBAgAABAgQIECBAgAABAjkB4UXOS2kCBAgQIECAAAECBAgQIECgWEB4UQyuOgIECBAgQIAAAQIECBAgQCAnILzIeSlNgAABAgQIECBAgAABAgQIFAsIL4rBVUeAAAECBAgQIECAAAECBAjkBIQXOS+lCRAgQIAAAQIECBAgQIAAgWIB4UUxuOoIECBAgAABAgQIECBAgACBnIDwIuelNAECBAgQIECAAAECBAgQIFAsILwoBlcdAQIECBAgQIAAAQIECBAgkBMQXuS8lCZAgAABAgQIECBAgAABAgSKBYQXxeCqI0CAAAECBAgQIECAAAECBHICwoucl9IECBAgQIAAAQIECBAgQIBAsYDwohhcdQQIECBAgAABAgQIECBAgEBOQHiR81KaAAECBAgQIECAAAECBAgQKBYQXhSDq44AAQIECBAgQIAAAQIECBDICQgvcl5KEyBAgAABAgQIECBAgAABAsUCwoticNURIECAAAECBAgQIECAAAECOQHhRc5LaQIECBAgQIAAAQIECBAgQKBYQHhRDK46AgQIECBAgAABAgQIECBAICcgvMh5KU2AAAECBAgQIECAAAECBAgUCwgvisFVR4AAAQIECBAgQIAAAQIECOQEhBc5L6UJECBAgAABAgQIECBAgACBYgHhRTG46ggQIECAAAECBAgQIECAAIGcgPAi56U0AQIECBAgQIAAAQIECBAgUCwgvCgGVx0BAgQIECBAgAABAgQIECCQExBe5LyUJkCAAAECBAgQIECAAAECBIoFhBfF4KojQIAAAQIECBAgQIAAAQIEcgLCi5yX0gQIECBAgAABAgQIECBAgECxgPCiGFx1BAgQIECAAAECBAgQIECAQE5AeJHzUpoAAQIECBAgQIAAAQIECBAoFhBeFIOrjgABAgQIECBAgAABAgQIEMgJCC9yXkoTIECAAAECBAgQIECAAAECxQLCi2Jw1REgQIAAAQIECBAgQIAAAQI5AeFFzktpAgQIECBAgAABAgQIECBAoFhAeFEMrjoCBAgQIECAAAECBAgQIEAgJyC8yHkpTYAAAQIECBAgQIAAAQIECBQLCC+KwVVHgAABAgQIECBAgAABAgQI5ASEFzkvpQkQIECAAAECBAgQIECAAIFiAeFFMbjqCBAgQIAAAQIECBAgQIAAgZyA8CLnpTQBAgQIECBAgAABAgQIECBQLCC8KAZXHQECBAgQIECAAAECBAgQIJATEF7kvJQmQIAAAQIECBAgQIAAAQIEigWEF8XgqiNAgAABAgQIECBAgAABAgRyAsKLnJfSBAgQIECAAAECBAgQIECAQLGA8KIYXHUECBAgQIAAAQIECBAgQIBATkB4kfNSmgABAgQIECBAgAABAgQIECgWEF4Ug6uOAAECBAgQIECAAAECBAgQyAkIL3JeShMgQIAAAQIECBAgQIAAAQLFAsKLYnDVESBAgAABAgQIECBAgAABAjkB4UXOS2kCBAgQIECAAAECBAgQIECgWEB4UQyuOgIECBAgQIAAAQIECBAgQCAnILzIeSlNgAABAgQIECBAgAABAgQIFAsIL4rBVUeAAAECBAgQIECAAAECBAjkBIQXOS+lCRAgQIAAAQIECBAgQIAAgWIB4UUxuOoIECBAgAABAgQIECBAgACBnIDwIuelNAECBAgQIECAAAECBAgQIFAsILwoBlcdAQIECBAgQIAAAQIECBAgkBMQXuS8lCZAgAABAgQIECBAgAABAgSKBYQXxeCqI0CAAAECBAgQIECAAAECBHICwoucl9IECBAgQIAAAQIECBAgQIBAsYDwohhcdQQIECBAgAABAgQIECBAgEBOQHiR81KaAAECBAgQIECAAAECBAgQKBYQXhSDq44AAQIECBAgQIAAAQIECBDICQgvcl5KEyBAgAABAgQIECBAgAABAsUCwoticNURIECAAAECBAgQIECAAAECOQHhRc5LaQIECBAgQIAAAQIECBAgQKBYQHhRDK46AgQIECBAgAABAgQIECBAICcgvMh5KU2AAAECBAgQIECAAAECBAgUCwgvisFVR4AAAQIECBAgQIAAAQIECOQEhBc5L6UJECBAgAABAgQIECBAgACBYgHhRTG46ggQIECAAAECBAgQIECAAIGcgPAi56U0AQIECBAgQIAAAQIECBAgUCwgvCgGVx0BAgQIECBAgAABAgQIECCQExBe5LyUJkCAAAECBAgQIECAAAECBIoFhBfF4KojQIAAAQIECBAgQIAAAQIEcgLCi5yX0gQIECBAgAABAgQIECBAgECxgPCiGFx1BAgQIECAAAECBAgQIECAQE5AeJHzUpoAAQIECBAgQIAAAQIECBAoFhBeFIOrjgABAgQIECBAgAABAgQIEMgJCC9yXkoTIECAAAECBAgQIECAAAECxQLCi2Jw1REgQIAAAQIECBAgQIAAAQI5AeFFzktpAgQIECBAgAABAgQIECBAoFhAeFEMrjoCBAgQIECAAAECBAgQIEAgJyC8yHkpTYAAAQIECBAgQIAAAQIECBQLCC+KwVVHgAABAgQIECBAgAABAgQI5ASEFzkvpQkQIECAAAECBAgQIECAAIFiAeFFMbjqCBAgQIAAAQIECBAgQIAAgZyA8CLnpTQBAgQIECBAgAABAgQIECBQLCC8KAZXHQECBAgQIECAAAECBAgQIJATEF7kvJQmQIAAAQIECBAgQIAAAQIEigWEF8XgqiNAgAABAgQIECBAgAABAgRyAsKLnJfSBAgQIECAAAECBAgQIECAQLGA8KIYXHUECBAgQIAAAQIECBAgQIBATkB4kfNSmgABAgQIECBAgAABAgQIECgWEF4Ug6uOAAECBAgQIECAAAECBAgQyAkIL3JeShMgQIAAAQIECBAgQIAAAQLFAsKLYnDVESBAgAABAgQIECBAgAABAjkB4UXOS2kCBAgQIECAAAECBAgQIECgWEB4UQyuOgIECBAgQIAAAQIECBAgQCAnILzIeSlNgAABAgQIECBAgAABAgQIFAsIL4rBVUeAAAECBAgQIECAAAECBAjkBIQXOS+lCRAgQIAAAQIECBAgQIAAgWIB4UUxuOoIECBAgAABAgQIECBAgACBnIDwIuelNAECBAgQIECAAAECBAgQIFAsILwoBlcdAQIECBAgQIAAAQIECBAgkBMQXuS8lCZAgAABAgQIECBAgAABAgSKBYQXxeCqI0CAAAECBAgQIECAAAECBHICwoucl9IECBAgQIAAAQIECBAgQIBAsYDwohhcdQQIECBAgAABAgQIECBAgEBOQHiR81KaAAECBAgQIECAAAECBAgQKBYQXhSDq44AAQIECBAgQIAAAQIECBDICQgvcl5KEyBAgAABAgQIECBAgAABAsUCwoticNURIECAAAECBAgQIECAAAECOQHhRc5LaQIECBAgQIAAAQIECBAgQKBYQHhRDK46AgQIECBAgAABAgQIECBAICcgvMh5KU2AAAECBAgQIECAAAECBAgUCwgvisFVR4AAAQIECBAgQIAAAQIECOQEhBc5L6UJECBAgAABAgQIECBAgACBYgHhRTG46ggQIECAAAECBAgQIECAAIGcgPAi56U0AQIECBAgQIAAAQIECBAgUCwgvCgGVx0BAgQIECBAgAABAgQIECCQExBe5LyUJkCAAAECBAgQIECAAAECBIoFhBfF4KojQIAAAQIECBAgQIAAAQIEcgLCi5yX0gQIECBAgAABAgQIECBAgECxgPCiGFx1BAgQIECAAAECBAgQIECAQE5AeJHzUpoAAQIECBAgQIAAAQIECBAoFhBeFIOrjgABAgQIECBAgAABAgQIEMgJCC9yXkoTIECAAAECBAgQIECAAAECxQLCi2Jw1REgQIAAAQIECBAgQIAAAQI5AeFFzktpAgQIECBAgAABAgQIECBAoFhAeFEMrjoCBAgQIECAAAECBAgQIEAgJyC8yHkpTYAAAQIECBAgQIAAAQIECBQLCC+KwVVHgAABAgQIECBAgAABAgQI5ASEFzkvpQkQIECAAAECBAgQIECAAIFiAeFFMbjqCBAgQIAAAQIECBAgQIAAgZyA8CLnpTQBAgQIECBAgAABAgQIECBQLCC8KAZXHQECBAgQIECAAAECBAgQIJATEF7kvJQmQIAAAQIECBAgQIAAAQIEigWEF8XgqiNAgAABAgQIECBAgAABAgRyAsKLnJfSBAgQIECAAAECBAgQIECAQLGA8KIYXHUECBAgQIAAAQIECBAgQIBATkB4kfNSmgABAgQIECBAgAABAgQIECgWEF4Ug6uOAAECBAgQIECAAAECBAgQyAkIL3JeShMgQIAAAQIECBAgQIAAAQLFAsKLYnDVESBAgAABAgQIECBAgAABAjkB4UXOS2kCBAgQIECAAAECBAgQIECgWEB4UQyuOgIECBAgQIAAAQIECBAgQCAnILzIeSlNgAABAgQIECBAgAABAgQIFAsIL4rBVUeAAAECBAgQIECAAAECBAjkBIQXOS+lCRAgQIAAAQIECBAgQIAAgWIB4UUxuOoIECBAgAABAgQIECBAgACBnIDwIuelNAECBAgQIECAAAECBAgQIFAsILwoBlcdAQIECBAgQIAAAQIECBAgkBMQXuS8lCZAgAABAgQIECBAgAABAgSKBYQXxeCqI0CAAAECBAgQIECAAAECBHICwoucl9IECBAgQIAAAQIECBAgQIBAsYDwohhcdQQIECBAgAABAgQIECBAgEBOQHiR81KaAAECBAgQIECAAAECBAgQKBYQXhSDq44AAQIECBAgQIAAAQIECBDICQgvcl5KEyBAgAABAgQIECBAgAABAsUCwoticNURIECAAAECBAgQIECAAAECOQHhRc5LaQIECBAgQIAAAQIECBAgQKBYQHhRDK46AgQIECBAgAABAgQIECBAICcgvMh5KU2AAAECBAgQIECAAAECBAgUCwgvisFVR4AAAQIECBAgQIAAAQIECOQEhBc5L6UJECBAgAABAgQIECBAgACBYgHhRTG46ggQIECAAAECBAgQIECAAIGcgPAi56U0AQIECBAgQIAAAQIECBAgUCwgvCgGVx0BAgQIECBAgAABAgQIECCQExBe5LyUJkCAAAECBAgQIECAAAECBIoFhBfF4KojQIAAAQIECBAgQIAAAQIEcgLCi5yX0gQIECBAgAABAgQIECBAgECxgPCiGFx1BAgQIECAAAECBAgQIECAQE5AeJHzUpoAAQIECBAgQIAAAQIECBAoFhBeFIOrjgABAgQIECBAgAABAgQIEMgJCC9yXkoTIECAAAECBAgQIECAAAECxQLCi2Jw1REgQIAAAQIECBAgQIAAAQI5AeFFzktpAgQIECBAgAABAgQIECBAoFhAeFEMrjoCBAgQIECAAAECBAgQIEAgJyC8yHkpTYAAAQIECBAgQIAAAQIECBQLCC+KwVVHgAABAgQIECBAgAABAgQI5ASEFzkvpQkQIECAAAECBAgQIECAAIFiAeFFMbjqCBAgQIAAAQIECBAgQIAAgZyA8CLnpTQBAgQIECBAgAABAgQIECBQLCC8KAZXHQECBAgQIECAAAECBAgQIJATEF7kvJQmQIAAAQIECBAgQIAAAQIEigWEF8XgqiNAgAABAgQIECBAgAABAgRyAsKLnJfSBAgQIECAAAECBAgQIECAQLGA8KIYXHUECBAgQIAAAQIECBAgQIBATkB4kfNSmgABAgQIECBAgAABAgQIECgWEF4Ug6uOAAECBAgQIECAAAECBAgQyAkIL3JeShMgQIAAAQIECBAgQIAAAQLFAsKLYnDVESBAgAABAgQIECBAgAABAjkB4UXOS2kCBAgQIECAAAECBAgQIECgWEB4UQyuOgIECBAgQIAAAQIECBAgQCAnILzIeSlNgAABAgQIECBAgAABAgQIFAsIL4rBVUeAAAECBAgQIECAAAECBAjkBIQXOS+lCRAgQIAAAQIECBAgQIAAgWIB4UUxuOoIECBAgAABAgQIECBAgACBnIDwIuelNAECBAgQIECAAAECBAgQIFAsILwoBlcdAQIECBAgxH6KKwAAIABJREFUQIAAAQIECBAgkBMQXuS8lCZAgAABAgQIECBAgAABAgSKBYQXxeCqI0CAAAECBAgQIECAAAECBHICwoucl9IECBAgQIAAAQIECBAgQIBAsYDwohhcdQQIECBAgAABAgQIECBAgEBOQHiR81KaAAECBAgQIECAAAECBAgQKBYQXhSDq44AAQIECBAgQIAAAQIECBDICQgvcl5KEyBAgAABAgQIECBAgAABAsUCwoticNURIECAAAECBAgQIECAAAECOQHhRc5LaQIECBAgQIAAAQIECBAgQKBYQHhRDK46AgQIECBAgAABAgQIECBAICcgvMh5KU2AAAECBAgQIECAAAECBAgUCwgvisFVR4AAAQIECBAgQIAAAQIECOQEhBc5L6UJECBAgAABAgQIECBAgACBYgHhRTG46ggQIECAAAECBAgQIECAAIGcgPAi56U0AQIECBAgQIAAAQIECBAgUCwgvCgGVx0BAgQIECBAgAABAgQIECCQExBe5LyUJkCAAAECBAgQIECAAAECBIoFhBfF4KojQIAAAQIECBAgQIAAAQIEcgLCi5yX0gQIECBAgAABAgQIECBAgECxgPCiGFx1BAgQIECAAAECBAgQIECAQE5AeJHzUpoAAQIECBAgQIAAAQIECBAoFhBeFIOrjgABAgQIECBAgAABAgQIEMgJCC9yXkoTIECAAAECBAgQIECAAAECxQLCi2Jw1REgQIAAAQIECBAgQIAAAQI5AeFFzktpAgQIECBAgAABAgQIECBAoFhAeFEMrjoCBAgQIECAAAECBAgQIEAgJyC8yHkpTYAAAQIECBAgQIAAAQIECBQLCC+KwVVHgAABAgQIECBAgAABAgQI5ASEFzkvpQkQIECAAAECBAgQIECAAIFiAeFFMbjqCBAgQIAAAQIECBAgQIAAgZyA8CLnpTQBAgQIECBAgAABAgQIECBQLCC8KAZXHQECBAgQIECAAAECBAgQIJATEF7kvJQmQIAAAQIECBAgQIAAAQIEigWEF8XgqiNAgAABAgQIECBAgAABAgRyAsKLnJfSBAgQIECAAAECBAgQIECAQLGA8KIYXHUECBAgQIAAAQIECBAgQIBATkB4kfNSmgABAgQIECBAgAABAgQIECgWEF4Ug6uOAAECBAgQIECAAAECBAgQyAkIL3JeShMgQIAAAQIECBAgQIAAAQLFAsKLYnDVESBAgAABAgQIECBAgAABAjkB4UXOS2kCBAgQIECAAAECBAgQIECgWEB4UQyuOgIECBAgQIAAAQIECBAgQCAnILzIeSlNgAABAgQIECBAgAABAgQIFAsIL4rBVUeAAAECBAgQIECAAAECBAjkBIQXOS+lCRAgQIAAAQIECBAgQIAAgWIB4UUxuOoIECBAgAABAgQIECBAgACBnIDwIuelNAECBAgQIECAAAECBAgQIFAsILwoBlcdAQIECBAgQIAAAQIECBAgkBMQXuS8lCZAgAABAgQIECBAgAABAgSKBYQXxeCqI0CAAAECBAgQIECAAAECBHICwoucl9IECBAgQIAAAQIECBAgQIBAsYDwohhcdQQIECBAgAABAgQIECBAgEBOQHiR81KaAAECBAgQIECAAAECBAgQKBYQXhSDq44AAQIECBAgQIAAAQIECBDICQgvcl5KEyBAgAABAgQIECBAgAABAsUCwoticNURIECAAAECBAgQIECAAAECOQHhRc5LaQIECBAgQIAAAQIECBAgQKBYQHhRDK46AgQIECBAgAABAgQIECBAICcgvMh5KU2AAAECBAgQIECAAAECBAgUCwgvisFVR4AAAQIECBAgQIAAAQIECOQEhBc5L6UJECBAgAABAgQIECBAgACBYgHhRTG46ggQIECAAAECBAgQIECAAIGcgPAi56U0AQIECBAgQIAAAQIECBAgUCwgvCgGVx0BAgQIECBAgAABAgQIECCQExBe5LyUJkCAAAECBAgQIECAAAECBIoFhBfF4KojQIAAAQIECBAgQIAAAQIEcgLCi5yX0gQIECBAgAABAgQIECBAgECxgPCiGFx1BAgQIECAAAECBAgQIECAQE5AeJHzUpoAAQIECBAgQIAAAQIECBAoFhBeFIOrjgABAgQIECBAgAABAgQIEMgJCC9yXkoTIECAAAECBAgQIECAAAECxQLCi2Jw1REgQIAAAQIECBAgQIAAAQI5AeFFzktpAgQIECBAgAABAgQIECBAoFhAeFEMrjoCBAgQIECAAAECBAgQIEAgJyC8yHkpTYAAAQIECBAgQIAAAQIECBQLCC+KwVVHgAABAgQIECBAgAABAgQI5ASEFzkvpQkQIECAAAECBAgQIECAAIFiAeFFMbjqCBAgQIAAAQIECBAgQIAAgZyA8CLnpTQBAgQIECBAgAABAgQIECBQLCC8KAZXHQECBAgQIECAAAECBAgQIJATEF7kvJQmQIAAAQIECBAgQIAAAQIEigWEF8XgqiNAgAABAgQIECBAgAABAgRyAsKLnJfSBAgQIECAAAECBAgQIECAQLGA8KIYXHUECBAgQIAAAQIECBAgQIBATkB4kfNSmgABAgQIECBAgAABAgQIECgWEF4Ug6uOAAECBAgQIECAAAECBAgQyAkIL3JeShMgQIAAAQIECBAgQIAAAQLFAsKLYnDVESBAgAABAgQIECBAgAABAjkB4UXOS2kCBAgQIECAAAECBAgQIECgWEB4UQyuOgIECBAgQIAAAQIECBAgQCAnILzIeSlNgAABAgQIECBAgAABAgQIFAsIL4rBVUeAAAECBAgQIECAAAECBAjkBIQXOS+lCRAgQIAAAQIECBAgQIAAgWIB4UUxuOoIECBAgAABAgQIECBAgACBnIDwIuelNAECBAgQIECAAAECBAgQIFAsILwoBlcdAQIECBAgQIAAAQIECBAgkBMQXuS8lCZAgAABAgQIECBAgAABAgSKBYQXxeCqI0CAAAECBAgQIECAAAECBHICwoucl9IECBAgQIAAAQL/r707AZblKugH3IpsssmihH0JIKTcEAkQVoEgOyl2UCAghICAQWW12JLIjgtrAGULkrCHTUQKCcpiCVEJGkUFl4AJioZVQaDyr1/X/1z7TWbunXPnznk9fb+pol5478yc09/pme7z69OnCRAgQIAAgcYCwovG4KojQIAAAQIECBAgQIAAAQIE6gSEF3VeShMgQIAAAQIECBAgQIAAAQKNBYQXjcFVR4AAAQIECBAgQIAAAQIECNQJCC/qvJQmQIAAAQIECBAgQIAAAQIEGgsILxqDq44AAQIECBAgQIAAAQIECBCoExBe1HkpTYAAAQIECBAgQIAAAQIECDQWEF40BlcdAQIECBAgQIAAAQIECBAgUCcgvKjzUpoAAQIECBAgQIAAAQIECBBoLCC8aAyuOgIECBAgQIAAAQIECBAgQKBOQHhR56U0AQIECBAgQIAAAQIECBAg0FhAeNEYXHUECBAgQIAAAQIECBAgQIBAnYDwos5LaQIECBAgQIAAAQIECBAgQKCxgPCiMbjqCBAgQIAAAQIECBAgQIAAgToB4UWdl9IECBAgQIAAAQIECBAgQIBAYwHhRWNw1REgQIAAAQIECBAgQIAAAQJ1AsKLOi+lCRAgQIAAAQIECBAgQIAAgcYCwovG4KojQIAAAQIECBAgQIAAAQIE6gSEF3VeShMgQIAAAQIECBAgQIAAAQKNBYQXjcFVR4AAAQIECBAgQIAAAQIECNQJCC/qvJQmQIAAAQIECBAgQIAAAQIEGgsILxqDq44AAQIECBAgQIAAAQIECBCoExBe1HkpTYAAAQIECBAgQIAAAQIECDQWEF40BlcdAQIECBAgQIAAAQIECBAgUCcgvKjzUpoAAQIECBAgQIAAAQIECBBoLCC8aAyuOgIECBAgQIAAAQIECBAgQKBOQHhR56U0AQIECBAgQIAAAQIECBAg0FhAeNEYXHUECBAgQIAAAQIECBAgQIBAnYDwos5LaQIECBAgQIAAAQIECBAgQKCxgPCiMbjqCBAgQIAAAQIECBAgQIAAgToB4UWdl9IECBAgQIAAAQIECBAgQIBAYwHhRWNw1REgQIAAAQIECBAgQIAAAQJ1AsKLOi+lCRAgQIAAAQIECBAgQIAAgcYCwovG4KojQIAAAQIECBAgQIAAAQIE6gSEF3VeShMgQIAAAQIECBAgQIAAAQKNBYQXjcFVR4AAAQIECBAgQIAAAQIECNQJCC/qvJQmQIAAAQIECBAgQIAAAQIEGgsILxqDq44AAQIECBAgQIAAAQIECBCoExBe1HkpTYAAAQIECBAgQIAAAQIECDQWEF40BlcdAQIECBAgQIAAAQIECBAgUCcgvKjzUpoAAQIECBAgQIAAAQIECBBoLCC8aAyuOgIECBAgQIAAAQIECBAgQKBOQHhR56U0AQIECBAgQIAAAQIECBAg0FhAeNEYXHUECBAgQIAAAQIECBAgQIBAnYDwos5LaQIECBAgQIAAAQIECBAgQKCxgPCiMbjqCBAgQIAAAQIECBAgQIAAgToB4UWdl9IECBAgQIAAAQIECBAgQIBAYwHhRWNw1REgQIAAAQIECBAgQIAAAQJ1AsKLOi+lCRAgQIAAAQIECBAgQIAAgcYCwovG4KojQIAAAQIECBAgQIAAAQIE6gSEF3VeShMgQIAAAQIECBAgQIAAAQKNBYQXjcFVR4AAAQIECBAgQIAAAQIECNQJCC/qvJQmQIAAAQIECBAgQIAAAQIEGgsILxqDq44AAQIECBAgQIAAAQIECBCoExBe1HkpTYAAAQIECBAgQIAAAQIECDQWEF40BlcdAQIECBAgQIAAAQIECBAgUCcgvKjzUpoAAQIECBAgQIAAAQIECBBoLCC8aAyuOgIECBAgQIAAAQIECBAgQKBOQHhR56U0AQIECBAgQIAAAQIECBAg0FhAeNEYXHUECBAgQIAAAQIECBAgQIBAnYDwos5LaQIECBAgQIAAAQIECBAgQKCxgPCiMbjqCBAgQIAAAQIECBAgQIAAgToB4UWdl9IECBAgQIAAAQIECBAgQIBAYwHhRWNw1REgQIAAAQIECBAgQIAAAQJ1AsKLOi+lCRAgQIAAAQIECBAgQIAAgcYCwovG4KojQIAAAQIECBAgQIAAAQIE6gSEF3VeShMgQIAAAQIECBAgQIAAAQKNBYQXjcFVR4AAAQIECBAgQIAAAQIECNQJCC/qvJQmQIAAAQIECBAgQIAAAQIEGgsILxqDq44AAQIECBAgQIAAAQIECBCoExBe1HkpTYAAAQIECBAgQIAAAQIECDQWEF40BlcdAQIECBAgQIAAAQIECBAgUCcgvKjzUpoAAQIECBAgQIAAAQIECBBoLCC8aAyuOgIECBAgQIAAAQIECBAgQKBOQHhR56U0AQIECBAgQIAAAQIECBAg0FhAeNEYXHUECBAgQIAAAQIECBAgQIBAnYDwos5LaQIECBAgQIAAAQIECBAgQKCxgPCiMbjqCBAgQIAAAQIECBAgQIAAgToB4UWdl9IECBAgQIAAAQIECBAgQIBAYwHhRWNw1REgQIAAAQIECBAgQIAAAQJ1AsKLOi+lCRAgQIAAAQIECBAgQIAAgcYCwovG4KojQIAAAQIECBAgQIAAAQIE6gSEF3VeShMgQIAAAQIECBAgQIAAAQKNBYQXjcFVR4AAAQIECBAgQIAAAQIECNQJCC/qvJQmQIAAAQIECBAgQIAAAQIEGgsILxqDq44AAQIECBAgQIAAAQIECBCoExBe1HkpTYAAAQIECBAgQIAAAQIECDQWEF40BlcdAQIECBAgQIAAAQIECBAgUCcgvKjzUpoAAQIECBAgQIAAAQIECBBoLCC8aAyuOgIECBAgQIAAAQIECBAgQKBOQHhR56U0AQIECBAgQIAAAQIECBAg0FhAeNEYXHUECBAgQIAAAQIECBAgQIBAnYDwos5LaQIECBAgQIAAAQIECBAgQKCxgPCiMbjqCBAgQIAAAQIECBAgQIAAgToB4UWdl9IECBAgQIAAAQIECBAgQIBAYwHhRWNw1REgQIAAAQIECBAgQIAAAQJ1AsKLOi+lCRAgQIAAAQIECBAgQIAAgcYCwovG4KojQIAAAQIECBAgQIAAAQIE6gSEF3VeShMgQIAAAQIECBAgQIAAAQKNBYQXjcFVR4AAAQIECBAgQIAAAQIECNQJCC/qvJQmQIAAAQIECBAgQIAAAQIEGgsILxqDq44AAQIECBAgQIAAAQIECBCoExBe1HkpTYAAAQIECBAgQIAAAQIECDQWEF40BlcdAQIECBAgQIAAAQIECBAgUCcgvKjzUpoAAQIECBAgQIAAAQIECBBoLCC8aAyuOgIECBAgQIAAAQIECBAgQKBOQHhR56U0AQIECBAgQIAAAQIECBAg0FhAeNEYXHUECBAgQIAAAQIECBAgQIBAnYDwos5LaQIECBAgQIAAAQIECBAgQKCxgPCiMbjqCBAgQIAAAQIECBAgQIAAgToB4UWdl9IECBAgQIAAAQIECBAgQIBAYwHhRWNw1REgQIAAAQIECBAgQIAAAQJ1AsKLOi+lCRAgQIAAAQIECBAgQIAAgcYCwovG4KojQIAAAQIECBAgQIAAAQIE6gSEF3VeShMgQIAAAQIECBAgQIAAAQKNBYQXjcFVR4AAAQIECBAgQIAAAQIECNQJCC/qvJQmQIAAAQIECBAgQIAAAQIEGgsILxqDq44AAQIECBAgQIAAAQIECBCoExBe1HkpTYAAAQIECBAgQIAAAQIECDQWEF40BlcdAQIECBAgQIAAAQIECBAgUCcgvKjzUpoAAQIECBAgQIAAAQIECBBoLCC8aAyuOgIECBAgQIAAAQIECBAgQKBOQHhR56U0AQIECBAgQIAAAQIECBAg0FhAeNEYXHUECBAgQIAAAQIECBAgQIBAnYDwos5LaQIECBAgQIAAAQIECBAgQKCxgPCiMbjqCBAgQIAAAQIECBAgQIAAgToB4UWdl9IECBAgQIAAAQIECBAgQIBAYwHhRWNw1REgQIAAAQIECBAgQIAAAQJ1AsKLOi+lCRAgQIAAAQIECBAgQIAAgcYCwovG4KojQIAAAQIECBAgQIAAAQIE6gSEF3VeShMgQIAAAQIECBAgQIAAAQKNBYQXjcFVR4AAAQIECBAgQIAAAQIECNQJCC/qvJQmQIAAAQIECBAgQIAAAQIEGgsILxqDq44AAQIECBAgQIAAAQIECBCoExBe1HkpTYAAAQIECBAgQIAAAQIECDQWEF40BlcdAQIECBAgQIAAAQIECBAgUCcgvKjzUpoAAQIECBAgQIAAAQIECBBoLCC8aAyuOgIECBAgQIAAAQIECBAgQKBOQHhR56U0AQIECBAgQIAAAQIECBAg0FhAeNEYXHUECBAgQIAAAQIECBAgQIBAnYDwos5LaQIECBAgQIAAAQIECBAgQKCxgPCiMbjqCBAgQIAAAQIECBAgQIAAgToB4UWdl9IECBAgQIAAAQIECBAgQIBAYwHhRWNw1REgQIAAAQIECBAgQIAAAQJ1AsKLOi+lCRAgQIAAAQIECBAgQIAAgcYCwovG4KojQIAAAQIECBAgQIAAAQIE6gSEF3VeShMgQIAAAQIECBAgQIAAAQKNBYQXjcFVR4AAAQIECBAgQIAAAQIECNQJCC/qvJQmQIAAAQIECBAgQIAAAQIEGgsILxqDq44AAQIECBAgQIAAAQIECBCoExBe1HkpTYAAAQIECBAgQIAAAQIECDQWEF40BlcdAQIECBAgQIAAAQIECBAgUCcgvKjzUpoAAQIECBAgQIAAAQIECBBoLCC8aAyuOgIECBAgQIAAAQIECBAgQKBOQHhR56U0AQIECBAgQIAAAQIECBAg0FhAeNEYXHUECBAgQIAAAQIECBAgQIBAnYDwos5LaQIECBAgQIAAAQIECBAgQKCxgPCiMbjqCBAgQIAAAQIECBAgQIAAgToB4UWdl9IECBAgQIAAAQIECBAgQIBAYwHhRWNw1REgQIAAAQIECBAgQIAAAQJ1AsKLOi+lCRAgQIAAAQIECBAgQIAAgcYCwovG4KojQIAAAQIECBAgQIAAAQIE6gSEF3VeShMgQIAAAQIECBAgQIAAAQKNBYQXjcFVR4AAAQIECBAgQIAAAQIECNQJCC/qvJQmQIAAAQIECBAgQIAAAQIEGgsILxqDq44AAQIECBAgQIAAAQIECBCoExBe1HkpTYAAAQIECBAgQIAAAQIECDQWEF40BlcdAQIECBAgQIAAAQIECBAgUCcgvKjzUpoAAQIECBAgQIAAAQIECBBoLCC8aAyuOgIECBAgQIAAAQIECBAgQKBOQHhR56U0AQIECBAgQIAAAQIECBAg0FhAeNEYXHUECBAgQIAAAQIECBAgQIBAnYDwos5LaQIECBAgQIAAAQIECBAgQKCxgPCiMbjqCBAgQIAAAQIECBAgQIAAgToB4UWdl9IECBAgQIAAAQIECBAgQIBAYwHhRWNw1REgQIAAAQIECBAgQIAAAQJ1AsKLOi+lCRAgQIAAAQIECBAgQIAAgcYCwovG4KojQIAAAQIECBAgQIAAAQIE6gSEF3VeShMgQIAAAQIECBAgQIAAAQKNBYQXjcFVR4AAAQIECBAgQIAAAQIECNQJCC/qvJQmQIAAAQIECBAgQIAAAQIEGgsILxqDq44AAQIECBAgQIAAAQIECBCoExBe1HkpTYAAAQIECBAgQIAAAQIECDQWEF40BlcdAQIECBAgQIAAAQIECBAgUCcgvKjzUpoAAQIECBAgQIAAAQIECBBoLCC8aAyuOgIECBAgQIAAAQIECBAgQKBOQHhR56U0AQIECBAgQIAAAQIECBAg0FhAeNEYXHUECBAgQIAAAQIECBAgQIBAnYDwos5LaQIECBAgQIAAAQIECBAgQKCxgPCiMbjqCBAgQIAAAQIECBAgQIAAgToB4UWdl9IECBAgQIAAAQIECBAgQIBAYwHhRWNw1REgQIAAAQIECBAgQIAAAQJ1AsKLOi+lCRAgQIAAAQIECBAgQIAAgcYCwovG4KojQIAAAQIECBAgQIAAAQIE6gSEF3VeShMgQIAAAQIECBAgQIAAAQKNBYQXjcFVR4AAAQIECBAgQIAAAQIECNQJCC/qvJQmQIAAAQIECBAgQIAAAQIEGgsILxqDq44AAQIECBAgQIAAAQIECBCoExBe1HkpTYAAAQIECBAgQIAAAQIECDQWEF40BlcdAQIECBAgQIAAAQIECBAgUCcgvKjzUpoAAQIECBAgQIAAAQIECBBoLCC8aAyuOgIECBAgQIAAAQIECBAgQKBOQHhR56U0AQIECBAgQIAAAQIECBAg0FhAeNEYXHUECBAgQIAAAQIECBAgQIBAnYDwos5LaQIECBAgQIAAAQIECBAgQKCxgPCiMbjqCBAgQIAAAQIECBAgQIAAgToB4UWdl9IECBAgQIAAAQIECBAgQIBAYwHhRWNw1REgQIAAAQIECBAgQIAAAQJ1AsKLOi+lCRAgQIAAAQIECBAgQIAAgcYCwovG4KojQIAAAQIECBAgQIAAAQIE6gSEF3VeShMgQIAAAQIECBAgQIAAAQKNBYQXjcFVR4AAAQIECBAgQIAAAQIECNQJCC/qvJQmQIAAAQIECBAgQIAAAQIEGgsILxqDq44AAQIECBAgQIAAAQIECBCoExBe1HkpTYAAAQIECBAgQIAAAQIECDQWEF40BlcdAQIECBAgQIAAAQIECBAgUCcgvKjzUpoAAQIECBAgQIAAAQIECBBoLCC8aAyuOgIECBAgQIAAAQIECBAgQKBOQHhR56U0AQIECBAgQIAAAQIECBAg0FhAeNEYXHUECBAgQIAAAQIECBAgQIBAncBWeFH3NqUJECBAgAABAgQIECBAgAABAu0Evq/ruvNT3fnn9394ESCwYQJJIX1/N6zTNJcAAQIECBBoLuCcqTm5CgnsmcABMy8MfvbM1QcRaCrgQNyUW2UECBAgQIDAhgo4Z9rQjtNsAl3XCS/sBgQmIOBAPIFOtAkECBAgQIDA2gWcM62dWAUE1iYgvFgbrQ8m0E7AgbidtZoIECBAgACBzRVwzrS5faflBIQX9gECExBwIJ5AJ9oEAgQIECBAYO0CzpnWTqwCAmsTEF6sjdYHE2gn4EDczlpNBAgQIECAwOYKOGfa3L7TcgLCC/sAgQkIOBBPoBNtAgECBAgQILB2AedMaydWAYG1CQgv1kbrgwm0E3AgbmetJgIECBAgQGBzBZwzbW7faTkB4YV9gMAEBByIJ9CJNoEAAQIECBBYu4BzprUTq4DA2gSWCi/OPvvs7l73uld3oxvdqHvFK15xQGNe8IIXdB//+Me7173udd1lLnOZ/t+++tWvdkcffXR32mmnbZU99thjD3hv+cxPfvKTB3zeoYce2p188sndzW52s4WfNXzD29/+9u6e97zn2oB8MIFNEFjmQPyoRz2qO+mkk+ZuTvnenXPOOd1zn/vcLt+rL3zhC92DHvSg7nOf+9zc9+Q7nbL5rqfcvO/hou95PnD2u74JztpIgAABAgQIbLbAvHOmjGde+cpXHjAGyVaW85gnP/nJ/XlOyn3+85+/wHhoXrm3vvWt/fnU1a52tQuA5XPKv1/60pe+wLipvGE4znnHO97Rj8fmvY466qh+LPa1r32tLzM7vsp7Zsdim92LWr9fBarCi3wRZsOC2fDiE5/4RD+QOfLIIw/4YmfgdMYZZ2x9ifMlf9jDHtYdf/zxW0FFOiFfzCc+8YlbPx4lCFk0ONqvHWe7CQwFlgkvhuXzPUtIOAwdy/evhBfDg+2i7+FO389F33O9R4AAAQIECBA4GAKLwouMP0oIUC7IrhJevOUtb+muf/3rdy996Uu3LvCWc60EDDf8pa19AAAgAElEQVS+8Y37cVEJL2bHOrNjokXnbkPDReddZTvuc5/7dE94whMOBrs6CeyJwNLhRYKGQw45pPvsZz97QIo4DC/SolyFPeKII+Z+MRJg5JXZG9sNauZ95k7hxbwZIHsi5EMIbIDAJocXJQBZ9LuxAfyaSIAAAQIECGyIwKLwIjPJv/jFL3bDAf4q4UU+L2OnBz/4wQdcqC3joXJRd1F4MTtWWiW8SNcYK23IDqqZ2wpUhRdJ6hI85ItYbh8ZfhHOOuus7nGPe1z34he/+IAvaWlBZmU8/elP717zmtf0fzVv5kX+flhu0RdavxIg8H8Cmxxe6EcCBAgQIECAQCuBReFFbgfJzPHhDPBVw4vcanLuueduXdTN52WsdIc73KF77Wtfu+PMiw9+8INbYy7hRas9RD1jFqgKL3KLR16ZBfH85z9/696vsubFhz70oa375efd3zVMEK961asuDC+G5Q477LCF94GV6Vbz6hozurYR2GuBMYcXi+69nJ2audcmPo8AAQIECBAgMCuwXXiRi7OZGZHAYbiGxG7WvMj46MQTT+xvG8ktubkVJQFEAomEJOU23e3WvBieK2235kXGZbnI7LYR+/vUBarDiyykOVxk5tRTT91asHOd4cVOt41MvaNsH4HtBMYcXiyaYaVHCRAgQIAAAQKtBXYKL4brQ9z//vfvF8DcbXiRAOSEE07oPyNjqAQjCS7ymg0vZsc6ZR3BcsF42ZkXiy4alYCjtbf6COylwK7Ci3KPem4fufa1r70VXrhtZC+7xmcRWF5AeLG8lZIECBAgQIDA/hXYKbyITFksMwP+hAyrhBe5uJvZFk996lO3bq/PQxB2Ci/SjuF6gcuGF7MXjWYfmrB/e96WT0FgV+FFNrykgde85jW7S13qUv3UqrwO1oKdU+gM20BgtwLCi93KeR8BAgQIECCwnwSWCS9KcPCpT32qO++887Zul18UIGRcNFz3b7gmYB5fWta5OPPMM/s1LPI5y4YXuVCcW0J2G16Ui87ZptmnzO2nfret0xDYdXiRzc8Xc/axQh6VOo0dw1ZsloDwYrP6S2sJECBAgACBgyOwbHhRbh/JLIk80jSLby565OhwnYysbTH7ZI/8+0knnbT1OcuEF7OByG7DiygvGp8dnB5QK4HdC6wUXixK8srfn3baaVstO/bYY7dWy81fDn8Qhs2fXYRz3mcNy5fP9fif3e8E3rn5Agc7vBh+14tmDvT5Pi+69zLlMh3zmGOO2XbG1ub3ji0gQIAAAQIExiKwbHiR9pZFMkt4kb9bZpwzOy4ZhhV50MC88GLRuVRCk2Fb5jkeeuih3cknn9xt90CEsi3WvhjLnqgduxFYKrzYzQd7DwEC7QRqw4t2LVMTAQIECBAgQGA8As6ZxtMXWkKgVkB4USumPIERCjgQj7BTNIkAAQIECBAYnYBzptF1iQYRWFpAeLE0lYIExivgQDzevtEyAgQIECBAYDwCzpnG0xdaQqBWQHhRK6Y8gREKOBCPsFM0iQABAgQIEBidgHOm0XWJBhFYWkB4sTSVggTGK+BAPN6+0TICBAgQIEBgPALOmcbTF1pCoFZAeFErpjyBEQo4EI+wUzSJAAECBAgQGJ2Ac6bRdYkGEVhaQHixNJWCBMYr4EA83r7RMgIECBAgQGA8As6ZxtMXWkKgVkB4USumPIERCjgQj7BTNIkAAQIECBAYnYBzptF1iQYRWFpAeLE0lYIExivgQDzevtEyAgQIECBAYDwCzpnG0xdaQqBWQHhRK6Y8gREKOBCPsFM0iQABAgQIEBidgHOm0XWJBhFYWkB4sTSVggTGK+BAPN6+0TICBAgQIEBgPALOmcbTF1pCoFZAeFErpjyBEQo4EI+wUzSJAAECBAgQGJ2Ac6bRdYkGEVhaQHixNJWCBMYr4EA83r7RMgIECBAgQGA8As6ZxtMXWkKgVkB4USumPIERCjgQj7BTNIkAAQIECBAYnYBzptF1iQYRWFpAeLE0lYIExivgQDzevtEyAgQIECBAYDwCzpnG0xdaQqBWQHhRK6Y8gREKOBCPsFM0iQABAgQIEBidgHOm0XWJBhFYWkB4sTSVggTGK+BAPN6+0TICBAgQIEBgPALOmcbTF1pCoFZAeFErpjyBEQo4EI+wUzSJAAECBAgQGJ2Ac6bRdYkGEVhaQHixNJWCBMYr4EA83r7RMgIECBAgQGA8As6ZxtMXWkKgVkB4USumPIERCjgQj7BTNIkAAQIECBAYnYBzptF1iQYRWFpAeLE0lYIExivgQDzevtEyAgQIECBAYDwCzpnG0xdaQqBWQHhRK6Y8gREKOBCPsFPW3KRPfOIT3YMe9KDux3/8x7vXve513WUuc5k117g/Pv7ss8/u7nWve3X/9V//1Z188sndRz/60e6JT3xid9RRR3Uvf/nLuyc84QndBz7wge5lL3tZd9/73ndblBNOOKF7+tOf3j3/+c/v3+dFgMD6Bd7whjd0v/d7v9e96U1v6q5ylat0559/fv/9+7d/+7fud3/3d7sf/MEf7BtRfkMvd7nLdW9/+9u7Zz/72d1JJ53UHXvssd0rXvGK9TdUDQdNwDnTQaNXMYGVBYQXKxP6AAIHX8CB+OD3QesWCC/WI75deJGQ6FOf+lT3sIc9rPvpn/7pbUOjv//7v+8e+MAH9o3MIOp617veehrsUwkQOECgfPd++Id/uHvAAx7QnXnmmd2pp57a/fqv/3r3qEc9aqus8GL/7jjOmfZv39vyzRcQXmx+H/Zb8Bd/8Rfdz//8z3d/93d/173kJS/pHvOYxyzcsu9973vdW97ylv7Kwl/+5V92F7rQhbpb3OIW3XHHHdfd7na367JTeG2WgAPxZvXXblubk/JXvvKV3emnn97lv7/xjW/0H3XIIYd0hx12WHeXu9yle+hDH9pd9rKX3W0V+/59s+HFn/3Zn3W/8iu/0s+8SHhx8YtfvPvVX/3V/r/zG/oLv/ALc81e+tKXdo997GO7448/vnva0562710BEGgp8MEPfrB7znOe033yk5/sfuRHfqT7pV/6pf5/F73oRReGF5khle+tmRcte+rg1OWc6eC4q5XAXggIL/ZCcQSf8YIXvKCfmpwT60wjz3TnTIWcff3v//5v99SnPrUfAOWAfpvb3KYvksHQv//7v3fPeMYz+hNzAcYIOrWiCQ7EFVgbWPTb3/5296IXvaj/jid8TFBxrWtdq/vQhz7UBxc/9mM/1s8I+Md//MfuR3/0R/tyd7/73TdwSw9+k7/yla90D3nIQ7rPfe5z3e///u93//Iv/9IHwwkpylTycsX2ute9bvf617++/y0dvr74xS/2sy6++c1vmnVx8LtUCwjMFfjnf/7n7t73vnd3qUtdqjvllFP6/yWodJvX9HcY50zT72NbOF0B4cUE+jb3Zufe9+985zvd1a52tf5+7Nzzedvb3vYCW/eRj3yke/CDH9z91E/9VH/vZ6ZV5pVBT67Y/s///I+T7Q3cJxyIN7DTlmxy7tdOcPGsZz2ru/71r9//9y1vecsuMwKGa15c8pKX7L+7KZdBc+75vvOd77w1KyshR07O8+e8gXb+Lu//13/91/5zjzzyyAvc911mJaRs7hHP7035u9xbXtbeSNjyG7/xG92rX/3q7qY3vWn/96961av6tSPmDQxKGDBbZ6Z45wpqwtib3exmW83O5+ffXvva1x5wlTRWCXR++7d/u1+r4qtf/eoFlHcamOQzcuX1M5/5TPfWt761v08+wcXDH/7wrXUrUubJT35yvwZGPm84FT0VJtDI7LcEwQmE8/1MmdxPv90rpve85z37Iil/xhln9Hbpt/TN5z//+f52laOPPrq/deUSl7jEAR+Xfn/Na17TT5H/m7/5m37700fZX3LPf373y6uYJ6QZvrJ/3PjGN+6n2N/kJjfZ+qd3vOMd/Vog273mXbGOY7b7Pe95T7+vXOc61+m3MX7DGULz9qNSV7Yj25zPKvvCduX/9m//tg+cMrNwaJrPi1FmHmbfKTMPDz/88L6v7nCHOywV3C+yK9+LbF/pize+8Y3dWWed1c9wTN894hGP6NdKyf8fvsqMyHxnMpOyhJTZjxKEpfwy+1Dpg1zQyPdtdvuz7+Y3Iv8rs4myXs6i72DauOz3vmzPIv/S/tk25X1l/5r9fsYh+07OV/Kdnucyu0/P++3K70K+Mxe+8IW39qESVObvsj98+MMf7vebfH/L93DJn2nFNkzAOdOGdZjmEhgICC8msDvkwJ6Dck7ubnWrW/X/nSuHOXmZnUGRK4eZFvmkJz2pDzGGr5xkZ4rzvBOLCTBNehMciKfbvWVQkS3MCXYGonktWvOiDJzzW5CB3sUudrF+4J0QIKHmne50pwOwyu/Hox/96H5AsxeDmD/4gz/ofvEXf7G70Y1u1M/uymdngcu9Ci/K55977rkHhBf57cpgLyHsz/7sz3ZXv/rVt7Y1t9T90R/90VJXVZ/73Of2M1ni/bWvfa27z33u0/3ar/3aAQOaMkD7oR/6oS4D1Ctf+cp9XSVMTggU7xve8Ib932fg9ra3va33n72t58///M/7MGo2vPjYxz7W3eAGN+gD6WxPgoUMsD772c9297vf/frwpMywS73HHHNM/xlHHHHEVr253z+D9Kte9ap9EFICidLPCbAzeM8rA8NS/prXvOYB7S+Dy4RRpXzBPe+887r3v//9/VXs4UKHp512Wu/2pS99qQ+fsi1xS90JUuKbMGM4QB6GYOXza8KLEixlEJzX0DRGaU/qvfa1r73rmYfz7EpbM/jNvpD98F3velc/E/LmN795l1mPmeGYAOpxj3tcvx+WWxgSxuW78eIXv7gPm25961t3F7nIRS5QPvvTX//1X/dVfetb3+r+8A//sP/vO97xjv33PK/MwkpAsii8yL6QY38+Zx3hxXb+teFFXPKblFthE87e/va37//M9yJB1qzjot+uBEmPfOQj+5lUhx566FZ4UYLKWKeO3GKSfkv4OQxLp3t02b9b5pxp//a9Ld98AeHFhvdhWUU7A5ZcccsVsyxQ9fWvf71qBkVOrHJwLwOcebM2Npxq0s13IJ5u9/7Wb/1WP5U54WRu98qJ9nbhRW5zyJXdL3/5y/3gMwOn/JlAM1eXh6Fmfj9ysv7e9763L5NB06rhRW5dy73lWZOjrPaf9pbB1KozLzIATUCbgWFe5Urzf//3f2+FNL/zO7+ztVhm2TO2q3+3e0/5zOE6Q7mqn+2fDZAXzSIpwUZmJ8yGF/m7zLb5zd/8za3Q6T/+4z/6bS5BTJn1UdbYmB3QpY9jnpkOefJJBoPD/Wf2KvXwyvywfAkv5s2umLfPZJCeQXJmdmQWTmb2ld+pMpPoHve4R79PZwbJXs28+NM//dO+rjKjZGha+iv1xiuBTl5l5mH+LDOWttsntvuO5FiaiwMZAOe7lSCszJD5whe+0P9dZgEMZ+wk/Eo/Zs2pRe3KMT4zQ8pr3myIYZvnhRcJA/JbktArr3WEF9v514YX5buU27MSiv3kT/5k3+4S1CXUGzou6pf8Dv3yL/9y/5s4DC92+733vs0XcM60+X1oC/avgPBiw/u+rKpd7tnMlbnyeL6dFu4sm577szNAyrTMnMzkCunsdOQNZ5p88x2Ip9vF5YQ/i89lAFpei2ZelKvUuepdBm7ldyLf62GgUIKOXCkut3ysGl5kinxuO8ngfbhQ5V6FFxnEZDCcq/wJKcpgOr9jmSGRwWNmOGTmwLzB3E63jdTsSeWWktSZ8OeKV7xiH6xk9kKu8uY2gfLabXgxb8HPcvtfeeJJbilIMJUZHBmYzl41nhc8bNfP88rXhhclTMmsnxxTSugWj1wJj1Nmm5TQbC/Ci3KFPf1SHn9ZvgNlHZKsc1DqHPZ1mYFUjoHD9s7uE9vZffrTn+5vPciMnNSTGR7DV+m7zEJJaJHHdsboT/7kT/oLEMOAIu/LZzzvec/rZzIleFglvMiMpczOudvd7tZfqBg+ZnnV731uPdnOP+2uCS/KPpI2z1sYtyxSHt+yxte8bSjf0Utf+tL9jKyEWrO3odV855WdhoBzpmn0o63YnwLCiw3v91yZywnB8AS3nBxl+uiihTuz2eVkMVMly4lFrhLlIO+1WQIOxJvVXzWtzVoFL3zhC/vp7gkAdgovyn3cf/zHf9wPoLNwZwbXmQ2QQCMDpAxe8srALjM6EoyUJxStMohJYHriiSf207qHt0ykrr0IL8rV/Dx29Od+7ue6+9///lvhRWab5Yr7X/3VX80dnKxj5kW2q9ymk2n/uU0mg8wMXmdv29tNeJHZFWX2zHCfyRXkrMOR2zGyvkUWaS2v3PqRv89tAf/wD//QBwT5X2YVDGdNLOrnvD8zB8oCsdn/8qoJL8pMvgRib37zm/uZQLOvHGue8pSn9LNKHv/4x+/JzItcqc8V9nx2tnk4myXfh8wESR+lzxIuDF9l8caEFlnrJLevLHpt9x1597vf3fd/1qlI/bO3bpbvZ25jSniRCw5ZS+QHfuAHdqx32J7amRcl1MztJvmux2mvw4vt/Ms5xuwMo7JNs2te5NaofL8TzM0LI2cdM+t0Xr/ke5ggLbfkZH8crptS8zus7LQEnDNNqz9tzf4SEF5scH/Pu3qVzSl/n5O14UBldlNzkp8pu3mVe0jvete79vd+zl613GCmfdF0B+LpdnOZUl7WsChrHCyaeVGuSOYe+OHAtgQVuT0sJ/RZ4DeBRtZ2GJbbbjHCopyBwuyCnSUEzRoGmcWVW1CGr1XDi6y1kJknGRxmEJIr6Rn0DQfkw9sCEqLk6nZZGHFd4UWe0pRZJmlPZl780z/909zwZDfhRUznDdzmrQGRWwIywyH/S8hTXllD4UpXulI/K2NeeDFc8yLvKWtSZG2M9GM5FtSEF6V9CdKzaOzlL3/5C3xBzznnnH6wXto0G6bP+0YPp/zPztTIcS+BzhWucIV+odjsK8OBcmn/z/zMz/QzU2ZDhe9+97v97Idcnd/pyvx24UW5oDA7U6psz+wtmrnNarjwbmYwLPOqDS/KjKXMVspMq9k6d/u9L2uU7ORfG16U9mQxzaz3kj9nX7Nrxcz2S1nfI2tlZAHarAUivFhm75p+GedM0+9jWzhdAeHFBvft7NTh4UnPdlN2523ycMGwXJXJVbftps1uMNskm+5APMlu7TeqTHvOQHb4KON54cXwe3zcccf1083L97hMm89n5taRDDZydTgLSg6n9W+3GGFZJDCD9NnwIo8LzeAxvx0JToaLMabOVcOLfEYGXKkjDu985zsvEF5kcc1czc9shW984xtzd4q9vG2kVFDuzc+MiHm3SZSB27wnpywa1JWnjRTn4cbMhhcl2Mm2JVjKkxJucYtbdFkrIP0yz2qnwWrWPcqsiLLOwG7Ci8z02ek1G14kPEhQl5kI5TUvWJgNL/I0mxz3Ethn7YjZWxSWeVpK6ltmTYS9CC8SlGQ//f7v//61hxdZHDWzTjJjKSFGAs5F4cVsmBWT7b73JbzYyX+34cXs03Dm7U/l1qBhvySkya1UuTCTGWgJbGafWLPTvunfpyvgnGm6fWvLpi8gvNjgPi5PB9luE7LY2+y914vKl2mauRK007TZDWabZNMdiCfZrVsblUcE5qphFvzLlPQEjJk2nZPxTP3OgCSPxsztJXkCQZ5okVlVueo+fOUWgMxayAAvA+As7pir1MNHYK5y20g+O4OF3DqRp6Lks0uoukp4kUUUM9U/A5n8mdkA2w2mMzsj0+Iz6MpV18xWqXnaSO3elFtWsoZDrgTPW09ht+HForAjT1nJwszZBzJrJq9Msc8tH/n/hx122AGbULPmRQKw9OMzn/nMfs2OcuthTXhRZheUAXoWjd3ptcqaFwmsEoJktk8J7GbDi3LbyF3ucpe5t3Ps1L7hv69y20i55SczdDKrKmFB1m9Z5naVYRuWnXmRmTuZbZDbd8rTZuYFn6t875fxrw0vyvlInhg07zafef013IaYZn2PzC7LWiHzZivV9Lmy0xJwzjSt/rQ1+0tAeLGh/T1cfGz4mLTh5mTKZFb+nrfg27zNLveQZjrvvKt9G0q1L5rtQDz9bs4aBpkKnxlXi2YVJCjIlf9MkZ59HGeEygAuA91c4c5nDhfwTJlVBjEZHCX8zBXP/HeuhOeWirxWCS/S3gQYWcugfN6iwXQJelJnwpPMQNip/lX3nrIg6k/8xE/0QVJ5BObwc3dz20huQZi38HKZdZdQILd2ZJHIRbcelCdSZUbMMmtepM3lWJBArNxCURNeDL2XXTh6t+FFZgElAMhtkAnqc6vQvIFyWZw2s4Jm9/na/t+LBTuz0OQpp5zSZbHtBF8J/eYt2Jnv7GMf+9j+caiZWVNug1o2vMhFjoQkZcZSjhV7GV4s618bXpSwIaHjshdgynbltqD8Ria8TPCR2UfCi9q9fNrlnTNNu39t3bQFhBcb2r/lPvic1M+u5F42qayenqtwOVnLfcdZ9O/DH/5wf0I8+zjUcq/8Na5xjf5kJ/cOe22GgAPxZvTTXrQy6xmcfvrpXQbp+Y5nwb9cTT7iiCP6gXpZE2NeXXnEYAa5CT+z5kWuTpZHZ5byq4YXCVDKZ+SqaX5LMmV7t+FF3p/73XNVvTwRJW2dN5jOoosJN/JbNnyE4jrDi/Jo0dwmU25ZmGe/2/AiA7HhYyLLo1IzqyG//VkMs1ylzgyQtCOzXvJK2zJATpiU2RrLhhdZ9yIzfPL+sh5KbXhRPiMhWUKY4RooZRtyK1SeHJN9crfhRRYizb6cx7qWxUXnDZSHj4CdfYRpccqiq4cffng/aymByKLXdt+RZR+Vmu9deXpIWfQ1TxqJVak7t0Flv8lMotknbiwbXuQ4ngVdh08+2cvwYln/2vAi5Re55N8S4GV/TjARs4RWZbvyO5cAMbeOlMVihRd7cfSZzmc4Z5pOX9qS/ScgvNjAPi9PDshJ5bxHiJVNKgOVnOSWcvkzJ2hZqT/3qJaBTspmmnUGCuu4J3wDmTeqyQ7EG9Vde9LYRQt27vTh5VHKCRbm3eKwF+FFBoOZJZLfkvJ7UsKLDNByO9vwdd5553Xvf//7uyz2mds8sl5HwtYy9T9tnQ0GZgfTw0FjBt4ZgA4f+byXC3Ym/EkgkIFhBpG5Op4ZL8M1Rmb7YTfhRab856kYuYocl9xakOAqi4SmvsxEySBtuO0Js1I2IVJm32X2RG4xyfviPvtI3Nk1DnIsyMAw25V+SMCVACS3xCRsKE8HGW7fon0ma4EkMM8gPOtyZBA9/Pz73e9+/aNdcxzabXiRNmVWQrnCXto177GcqfvRj350fwtFLBL4ZaZQHm0bq8xWyq1X856Ossz2ljK5vSsBybve9a7+tq7MkEkfpQ8SPuZ2huyP5clew7VqMiPjNre5Td/XZSHt3N6V79FwRs+y4cUlL3nJA2ZApY17GV7U+Jc+ySONs4js8FUWcM3vw5FHHtn3U2aZ5Hcks4vSNwnAsq8krMvTZPJKaJWn1QxnlOT2sjx5aDgLSnix05Fhf/27c6b91d+2dloCwosN7M8yQyJXHHaa/lpO2HPymhOATKPMyWSuzpWTtxCUk6oc8HPytt3V2w0km3yTHYgn38UX2MDdhhc7vW8vwos0tqz0n0F0QpLcipbgdKfX8EkmZbAzbxHh2fAiA9IMtjMoGt4+UOrby/DiP//zP/up/JnFllceR5unS2z3u7mb8CJrXmR2RcKRBAgJebLAaj4rA+xyC0HakAVYM1jL7TWZap8QI09pSNmEBlmwcfho1e0W7MxaF1lPJbczfOADH+jXREk/JmyYt53b7TO5nSP2uYUxA+58Tj4/sy2yDSVg2m14kbUjygyU4b41L7woTgnCEtSfddZZfTCU0CyD5lzJT9iw02u77S3vTX8M60lfZbuzds1s3+U9Wa8kYU/6MN+dvDJrMk8HShg3eyvSsuHFUUcddcCMpb0OL2r8S5/s5Dtsc3HJLWA590kIkbV8Mrso/ZXZZuXJMaVf8vmzT4wRXuykvr/+3TnT/upvWzstAeHFBvZnOQlPCJH/3u5Vgo6UKfeN5qQqJ8I5GcjJW145Ic6JakKOefdrbyDTvmqyA/G+6u6VNrasl5Ap9gkFxvTa7gkbY2pni7ZsF3a0qF8dBFoLlIAh9Q5vEWvdDvVNX8A50/T72BZOV0B4Md2+tWX7SMCBeB919gqbmuAygUWePpBZW3l04phewov/6w3hxZj2TG1pISC8aKGsjgg4Z7IfENhcAeHF5vadlhPYEnAgtjNsJ5Bp9blVLIODLNw4XCxwTHLCC+HFmPZHbWkrILxo672fa3POtJ9737ZvuoDwYtN7UPsJuIpgH9hB4H3ve1+/wGNeuec+j1J1e9i4dxszL8bdP1pHgMDmCggvNrfvtJyA8MI+QGACAg7EE+hEm0CAAAECBAisXcA509qJVUBgbQLCi7XR+mAC7QQciNtZq4kAAQIECBDYXAHnTJvbd1pOQHhhHyAwAQEH4gl0ok0gQIAAAQIE1i7gnGntxCogsDYB4cXaaH0wgXYCDsTtrNVEgAABAgQIbK6Ac6bN7TstJyC8sA8QmICAA/EEOtEmECBAgAABAmsXcM60dmIVEFibgPBibbQ+mEA7AQfidtZqIkCAAAECBDZXwDnT5vadlhMQXtgHCExAwIF4Ap1oEwgQIECAAIG1CzhnWjuxCgisTUB4sTZaH0ygnYADcTtrNREgQIAAAQKbK+CcaXP7TssJCC/sAwQmIOBAPIFOtAkECBAgQIDA2gWcM62dWAUE1iYgvFgbrQ8m0E7AgbidtZoIECBAgACBzRVwzrS5faflBIQX9gECExBwIJ5AJ9oEAgQIECBAYO0CzpnWTqwCAmsTEF6sjdYHE2gn4EDczlpNBAgQIECAwOYKOGfa3L7TcgLCC/sAgYbUsDQAAAQDSURBVAkIOBBPoBNtAgECBAgQILB2AedMaydWAYG1CQgv1kbrgwm0E3AgbmetJgIECBAgQGBzBZwzbW7faTkB4YV9gMAEBByIJ9CJNoEAAQIECBBYu4BzprUTq4DA2gSEF2uj9cEE2gk4ELezVhMBAgQIECCwuQLOmTa377ScgPDCPkBgAgIOxBPoRJtAgAABAgQIrF3AOdPaiVVAYG0Cwou10fpgAu0EHIjbWauJAAECBAgQ2FwB50yb23daTkB4YR8gMAEBB+IJdKJNIECAAAECBNYu4Jxp7cQqILA2AeHF2mh9MIF2Ag7E7azVRIAAAQIECGyugHOmze27KbQ8+5/XagIRPD8fcf75/R9eBAhsmIAD8YZ1mOYSIECAAAECB0XAOdNBYVfp/xew/622K5h5sZqfdxMYhYAfwlF0g0YQIECAAAECIxdwzjTyDpp48+x/q3Ww8GI1P+8mMAoBP4Sj6AaNIECAAAECBEYu4Jxp5B008ebZ/1brYOHFan7eTWAUAn4IR9ENGkGAAAECBAiMXMA508g7aOLNs/+t1sHCi9X8vJvAKAT8EI6iGzSCAAECBAgQGLmAc6aRd9DEm2f/W62DhRer+Xk3gVEI+CEcRTdoBAECBAgQIDByAedMI++giTfP/rdaBwsvVvPzbgKjEPBDOIpu0AgCBAgQIEBg5ALOmUbeQRNvnv1vtQ4WXqzm590ERiHgh3AU3aARBAgQIECAwMgFnDONvIMm3jz732odLLxYzc+7CYxCwA/hKLpBIwgQIECAAIGRCzhnGnkHTbx59r/VOlh4sZqfdxMYhYAfwlF0g0YQIECAAAECIxdwzjTyDpp48+x/q3Ww8GI1P+8mMAoBP4Sj6AaNIECAAAECBEYu4Jxp5B008ebZ/1brYOHFan7eTWAUAn4IR9ENGkGAAAECBAiMXMA508g7aOLNs/+t1sHCi9X8vJvAKAT8EI6iGzSCAAECBAgQGLmAc6aRd9DEm2f/W62DhRer+Xk3gVEI+CEcRTdoBAECBAgQIDByAedMI++giTfP/rdaBwsvVvPzbgKjEPBDOIpu0AgCBAgQIEBg5ALOmUbeQRNvnv1vtQ4WXqzm590ERiHgh3AU3aARBAgQIECAwMgFnDONvIMm3jz732odLLxYzc+7CYxCwA/hKLpBIwgQIECAAIGRCzhnGnkHTbx59r/VOlh4sZqfdxMYhYAfwlF0g0YQIECAAAECIxdwzjTyDpp48+x/q3Ww8GI1P+8mMAoBP4Sj6AaNIECAAAECBEYu4Jxp5B008ebZ/1br4APCi9U+yrsJECBAgAABAgQIECBAgAABAusR+L71fKxPJUCAAAECBAgQIECAAAECBAjsjcD/AxDsw3WdHYIgAAAAAElFTkSuQmCC;" vertex="1" parent="1">
          <mxGeometry x="883.56" y="577.5" width="1456.44" height="1150" as="geometry" />
        </mxCell>
        <mxCell id="Sf9XIOIQq0EHz7IIRPpC-75" style="edgeStyle=orthogonalEdgeStyle;rounded=0;orthogonalLoop=1;jettySize=auto;html=1;exitX=0;exitY=0.5;exitDx=0;exitDy=0;entryX=0;entryY=0.5;entryDx=0;entryDy=0;" edge="1" parent="1" target="MUi1yYkGbGkddvzHHs3n-1">
          <mxGeometry relative="1" as="geometry">
            <mxPoint x="920" y="937.5" as="sourcePoint" />
          </mxGeometry>
        </mxCell>
        <mxCell id="Sf9XIOIQq0EHz7IIRPpC-77" style="edgeStyle=orthogonalEdgeStyle;rounded=0;orthogonalLoop=1;jettySize=auto;html=1;exitX=1;exitY=0.5;exitDx=0;exitDy=0;entryX=0;entryY=0.5;entryDx=0;entryDy=0;" edge="1" parent="1" source="MUi1yYkGbGkddvzHHs3n-1" target="Sf9XIOIQq0EHz7IIRPpC-72">
          <mxGeometry relative="1" as="geometry" />
        </mxCell>
        <mxCell id="Sf9XIOIQq0EHz7IIRPpC-91" style="edgeStyle=orthogonalEdgeStyle;rounded=0;orthogonalLoop=1;jettySize=auto;html=1;exitX=0.25;exitY=1;exitDx=0;exitDy=0;entryX=0.25;entryY=1;entryDx=0;entryDy=0;" edge="1" parent="1" target="MUi1yYkGbGkddvzHHs3n-1">
          <mxGeometry relative="1" as="geometry">
            <mxPoint x="1084" y="1040" as="sourcePoint" />
          </mxGeometry>
        </mxCell>
        <mxCell id="MUi1yYkGbGkddvzHHs3n-1" value="&lt;font style=&quot;font-size: 14px;&quot;&gt;Импорт номерного фонда и прайс-листа&lt;/font&gt;" style="html=1;align=center;verticalAlign=top;rounded=1;absoluteArcSize=1;arcSize=10;dashed=0;whiteSpace=wrap;" parent="1" vertex="1">
          <mxGeometry x="1030" y="915" width="215.38" height="45" as="geometry" />
        </mxCell>
        <mxCell id="Sf9XIOIQq0EHz7IIRPpC-84" style="edgeStyle=orthogonalEdgeStyle;rounded=0;orthogonalLoop=1;jettySize=auto;html=1;exitX=0.5;exitY=1;exitDx=0;exitDy=0;entryX=0.5;entryY=1;entryDx=0;entryDy=0;" edge="1" parent="1" target="Sf9XIOIQq0EHz7IIRPpC-72">
          <mxGeometry relative="1" as="geometry">
            <mxPoint x="1427.611111111111" y="980" as="sourcePoint" />
          </mxGeometry>
        </mxCell>
        <mxCell id="Sf9XIOIQq0EHz7IIRPpC-87" style="edgeStyle=orthogonalEdgeStyle;rounded=0;orthogonalLoop=1;jettySize=auto;html=1;entryX=0;entryY=0.25;entryDx=0;entryDy=0;" edge="1" parent="1" target="Sf9XIOIQq0EHz7IIRPpC-72">
          <mxGeometry relative="1" as="geometry">
            <mxPoint x="1140" y="859" as="sourcePoint" />
          </mxGeometry>
        </mxCell>
        <mxCell id="Sf9XIOIQq0EHz7IIRPpC-94" style="edgeStyle=orthogonalEdgeStyle;rounded=0;orthogonalLoop=1;jettySize=auto;html=1;exitX=1;exitY=0.5;exitDx=0;exitDy=0;entryX=0;entryY=0.5;entryDx=0;entryDy=0;" edge="1" parent="1" source="Sf9XIOIQq0EHz7IIRPpC-72" target="Sf9XIOIQq0EHz7IIRPpC-74">
          <mxGeometry relative="1" as="geometry" />
        </mxCell>
        <mxCell id="Sf9XIOIQq0EHz7IIRPpC-72" value="&lt;font style=&quot;font-size: 14px;&quot;&gt;Изменение номерного фонда&lt;/font&gt;" style="html=1;align=center;verticalAlign=top;rounded=1;absoluteArcSize=1;arcSize=10;dashed=0;whiteSpace=wrap;" vertex="1" parent="1">
          <mxGeometry x="1320" y="850" width="215.38" height="35" as="geometry" />
        </mxCell>
        <mxCell id="Sf9XIOIQq0EHz7IIRPpC-86" style="edgeStyle=orthogonalEdgeStyle;rounded=0;orthogonalLoop=1;jettySize=auto;html=1;exitX=0;exitY=0.5;exitDx=0;exitDy=0;startArrow=classic;startFill=1;endArrow=none;endFill=0;" edge="1" parent="1" source="Sf9XIOIQq0EHz7IIRPpC-73">
          <mxGeometry relative="1" as="geometry">
            <mxPoint x="1260" y="938" as="targetPoint" />
          </mxGeometry>
        </mxCell>
        <mxCell id="Sf9XIOIQq0EHz7IIRPpC-88" style="edgeStyle=orthogonalEdgeStyle;rounded=0;orthogonalLoop=1;jettySize=auto;html=1;exitX=0;exitY=0.75;exitDx=0;exitDy=0;entryX=0;entryY=0.75;entryDx=0;entryDy=0;" edge="1" parent="1" target="Sf9XIOIQq0EHz7IIRPpC-73">
          <mxGeometry relative="1" as="geometry">
            <mxPoint x="1130" y="1030" as="sourcePoint" />
          </mxGeometry>
        </mxCell>
        <mxCell id="Sf9XIOIQq0EHz7IIRPpC-93" style="edgeStyle=orthogonalEdgeStyle;rounded=0;orthogonalLoop=1;jettySize=auto;html=1;exitX=1;exitY=0.5;exitDx=0;exitDy=0;entryX=0;entryY=0.75;entryDx=0;entryDy=0;" edge="1" parent="1" source="Sf9XIOIQq0EHz7IIRPpC-73" target="Sf9XIOIQq0EHz7IIRPpC-74">
          <mxGeometry relative="1" as="geometry" />
        </mxCell>
        <mxCell id="Sf9XIOIQq0EHz7IIRPpC-107" style="edgeStyle=orthogonalEdgeStyle;rounded=0;orthogonalLoop=1;jettySize=auto;html=1;entryX=0.5;entryY=1;entryDx=0;entryDy=0;" edge="1" parent="1" target="Sf9XIOIQq0EHz7IIRPpC-73">
          <mxGeometry relative="1" as="geometry">
            <mxPoint x="1300" y="1060" as="sourcePoint" />
          </mxGeometry>
        </mxCell>
        <mxCell id="Sf9XIOIQq0EHz7IIRPpC-73" value="&lt;font style=&quot;font-size: 14px;&quot;&gt;Установление скидок и акций&lt;/font&gt;" style="html=1;align=center;verticalAlign=top;rounded=1;absoluteArcSize=1;arcSize=10;dashed=0;whiteSpace=wrap;" vertex="1" parent="1">
          <mxGeometry x="1312.31" y="1000" width="215.38" height="40" as="geometry" />
        </mxCell>
        <mxCell id="Sf9XIOIQq0EHz7IIRPpC-99" style="edgeStyle=orthogonalEdgeStyle;rounded=0;orthogonalLoop=1;jettySize=auto;html=1;exitX=1;exitY=0.25;exitDx=0;exitDy=0;" edge="1" parent="1" source="Sf9XIOIQq0EHz7IIRPpC-74">
          <mxGeometry relative="1" as="geometry">
            <mxPoint x="2000" y="922" as="targetPoint" />
          </mxGeometry>
        </mxCell>
        <mxCell id="Sf9XIOIQq0EHz7IIRPpC-100" style="edgeStyle=orthogonalEdgeStyle;rounded=0;orthogonalLoop=1;jettySize=auto;html=1;exitX=1;exitY=0.75;exitDx=0;exitDy=0;" edge="1" parent="1" source="Sf9XIOIQq0EHz7IIRPpC-74">
          <mxGeometry relative="1" as="geometry">
            <mxPoint x="2000" y="942" as="targetPoint" />
          </mxGeometry>
        </mxCell>
        <mxCell id="Sf9XIOIQq0EHz7IIRPpC-103" style="edgeStyle=orthogonalEdgeStyle;rounded=0;orthogonalLoop=1;jettySize=auto;html=1;exitX=0.5;exitY=1;exitDx=0;exitDy=0;entryX=0.5;entryY=1;entryDx=0;entryDy=0;" edge="1" parent="1" target="Sf9XIOIQq0EHz7IIRPpC-74">
          <mxGeometry relative="1" as="geometry">
            <mxPoint x="1698" y="1030" as="sourcePoint" />
          </mxGeometry>
        </mxCell>
        <mxCell id="Sf9XIOIQq0EHz7IIRPpC-74" value="&lt;font style=&quot;font-size: 14px;&quot;&gt;Экспорт номерного фонда и прайс-листа&lt;/font&gt;" style="html=1;align=center;verticalAlign=top;rounded=1;absoluteArcSize=1;arcSize=10;dashed=0;whiteSpace=wrap;" vertex="1" parent="1">
          <mxGeometry x="1590" y="912.5" width="215.38" height="40" as="geometry" />
        </mxCell>
        <mxCell id="Sf9XIOIQq0EHz7IIRPpC-76" value="Данные о&lt;br&gt;гостинице" style="text;html=1;strokeColor=none;fillColor=none;align=center;verticalAlign=middle;whiteSpace=wrap;rounded=0;" vertex="1" parent="1">
          <mxGeometry x="940" y="922.5" width="60" height="30" as="geometry" />
        </mxCell>
        <mxCell id="Sf9XIOIQq0EHz7IIRPpC-82" value="Администратор" style="text;html=1;strokeColor=none;fillColor=none;align=center;verticalAlign=middle;whiteSpace=wrap;rounded=0;rotation=0;" vertex="1" parent="1">
          <mxGeometry x="1330" y="1040" width="60" height="30" as="geometry" />
        </mxCell>
        <mxCell id="Sf9XIOIQq0EHz7IIRPpC-83" value="Администратор" style="text;html=1;strokeColor=none;fillColor=none;align=center;verticalAlign=middle;whiteSpace=wrap;rounded=0;rotation=-91;" vertex="1" parent="1">
          <mxGeometry x="1390" y="922.5" width="60" height="30" as="geometry" />
        </mxCell>
        <mxCell id="Sf9XIOIQq0EHz7IIRPpC-89" value="Идентификатор&lt;br&gt;администратора" style="text;html=1;strokeColor=none;fillColor=none;align=center;verticalAlign=middle;whiteSpace=wrap;rounded=0;" vertex="1" parent="1">
          <mxGeometry x="1160" y="1013" width="60" height="30" as="geometry" />
        </mxCell>
        <mxCell id="Sf9XIOIQq0EHz7IIRPpC-90" value="Идентификатор&lt;br&gt;администратора" style="text;html=1;strokeColor=none;fillColor=none;align=center;verticalAlign=middle;whiteSpace=wrap;rounded=0;" vertex="1" parent="1">
          <mxGeometry x="1170" y="843" width="60" height="30" as="geometry" />
        </mxCell>
        <mxCell id="Sf9XIOIQq0EHz7IIRPpC-92" value="Система" style="text;html=1;strokeColor=none;fillColor=none;align=center;verticalAlign=middle;whiteSpace=wrap;rounded=0;rotation=-91;" vertex="1" parent="1">
          <mxGeometry x="1050" y="990" width="60" height="30" as="geometry" />
        </mxCell>
        <mxCell id="Sf9XIOIQq0EHz7IIRPpC-95" value="Прайс&lt;br&gt;лист" style="text;html=1;strokeColor=none;fillColor=none;align=center;verticalAlign=middle;whiteSpace=wrap;rounded=0;rotation=-91;" vertex="1" parent="1">
          <mxGeometry x="1230" y="952.5" width="60" height="62.5" as="geometry" />
        </mxCell>
        <mxCell id="Sf9XIOIQq0EHz7IIRPpC-96" value="Номерной фонд" style="text;html=1;strokeColor=none;fillColor=none;align=center;verticalAlign=middle;whiteSpace=wrap;rounded=0;rotation=-91;" vertex="1" parent="1">
          <mxGeometry x="1252.31" y="870" width="60" height="62.5" as="geometry" />
        </mxCell>
        <mxCell id="Sf9XIOIQq0EHz7IIRPpC-97" value="Номерной фонд" style="text;html=1;strokeColor=none;fillColor=none;align=center;verticalAlign=middle;whiteSpace=wrap;rounded=0;rotation=-91;" vertex="1" parent="1">
          <mxGeometry x="1530" y="870" width="60" height="62.5" as="geometry" />
        </mxCell>
        <mxCell id="Sf9XIOIQq0EHz7IIRPpC-98" value="Прайс&lt;br&gt;лист" style="text;html=1;strokeColor=none;fillColor=none;align=center;verticalAlign=middle;whiteSpace=wrap;rounded=0;rotation=-91;" vertex="1" parent="1">
          <mxGeometry x="1527.69" y="950.5" width="60" height="62.5" as="geometry" />
        </mxCell>
        <mxCell id="Sf9XIOIQq0EHz7IIRPpC-101" value="Прайс-лист" style="text;html=1;strokeColor=none;fillColor=none;align=center;verticalAlign=middle;whiteSpace=wrap;rounded=0;" vertex="1" parent="1">
          <mxGeometry x="1820" y="899" width="80" height="30" as="geometry" />
        </mxCell>
        <mxCell id="Sf9XIOIQq0EHz7IIRPpC-102" value="Измененный&lt;br&gt;номерной фонд" style="text;html=1;strokeColor=none;fillColor=none;align=center;verticalAlign=middle;whiteSpace=wrap;rounded=0;" vertex="1" parent="1">
          <mxGeometry x="1820" y="929" width="100" height="30" as="geometry" />
        </mxCell>
        <mxCell id="Sf9XIOIQq0EHz7IIRPpC-104" value="Система" style="text;html=1;strokeColor=none;fillColor=none;align=center;verticalAlign=middle;whiteSpace=wrap;rounded=0;rotation=-91;" vertex="1" parent="1">
          <mxGeometry x="1660" y="983" width="60" height="30" as="geometry" />
        </mxCell>
        <mxCell id="Sf9XIOIQq0EHz7IIRPpC-111" style="edgeStyle=orthogonalEdgeStyle;rounded=0;orthogonalLoop=1;jettySize=auto;html=1;exitX=0;exitY=0.5;exitDx=0;exitDy=0;entryX=0;entryY=0.5;entryDx=0;entryDy=0;" edge="1" parent="1" target="Sf9XIOIQq0EHz7IIRPpC-108">
          <mxGeometry relative="1" as="geometry">
            <mxPoint x="900" y="1152.5" as="sourcePoint" />
          </mxGeometry>
        </mxCell>
        <mxCell id="Sf9XIOIQq0EHz7IIRPpC-117" style="edgeStyle=orthogonalEdgeStyle;rounded=0;orthogonalLoop=1;jettySize=auto;html=1;exitX=0.5;exitY=1;exitDx=0;exitDy=0;entryX=0.5;entryY=1;entryDx=0;entryDy=0;" edge="1" parent="1" target="Sf9XIOIQq0EHz7IIRPpC-108">
          <mxGeometry relative="1" as="geometry">
            <mxPoint x="1137.9310344827586" y="1259.9999999999998" as="sourcePoint" />
          </mxGeometry>
        </mxCell>
        <mxCell id="Sf9XIOIQq0EHz7IIRPpC-150" style="edgeStyle=orthogonalEdgeStyle;rounded=0;orthogonalLoop=1;jettySize=auto;html=1;exitX=1;exitY=0.75;exitDx=0;exitDy=0;entryX=0;entryY=0.25;entryDx=0;entryDy=0;" edge="1" parent="1" source="Sf9XIOIQq0EHz7IIRPpC-108" target="Sf9XIOIQq0EHz7IIRPpC-110">
          <mxGeometry relative="1" as="geometry" />
        </mxCell>
        <mxCell id="Sf9XIOIQq0EHz7IIRPpC-191" style="edgeStyle=orthogonalEdgeStyle;rounded=0;orthogonalLoop=1;jettySize=auto;html=1;exitX=0.25;exitY=1;exitDx=0;exitDy=0;entryX=0.25;entryY=1;entryDx=0;entryDy=0;" edge="1" parent="1" target="Sf9XIOIQq0EHz7IIRPpC-108">
          <mxGeometry relative="1" as="geometry">
            <mxPoint x="1083.666666666667" y="1260" as="sourcePoint" />
          </mxGeometry>
        </mxCell>
        <mxCell id="Sf9XIOIQq0EHz7IIRPpC-108" value="&lt;font style=&quot;font-size: 14px;&quot;&gt;Добавление задач для персонала&lt;/font&gt;" style="html=1;align=center;verticalAlign=top;rounded=1;absoluteArcSize=1;arcSize=10;dashed=0;whiteSpace=wrap;" vertex="1" parent="1">
          <mxGeometry x="1030" y="1130" width="215.38" height="45" as="geometry" />
        </mxCell>
        <mxCell id="Sf9XIOIQq0EHz7IIRPpC-165" style="edgeStyle=orthogonalEdgeStyle;rounded=0;orthogonalLoop=1;jettySize=auto;html=1;exitX=1;exitY=0.75;exitDx=0;exitDy=0;entryX=0;entryY=0.5;entryDx=0;entryDy=0;" edge="1" parent="1" source="Sf9XIOIQq0EHz7IIRPpC-109" target="Sf9XIOIQq0EHz7IIRPpC-134">
          <mxGeometry relative="1" as="geometry" />
        </mxCell>
        <mxCell id="Sf9XIOIQq0EHz7IIRPpC-109" value="&lt;span style=&quot;font-size: 14px;&quot;&gt;&lt;br&gt;&lt;br&gt;Составление графика уборки&lt;/span&gt;" style="html=1;align=center;verticalAlign=top;rounded=1;absoluteArcSize=1;arcSize=10;dashed=0;whiteSpace=wrap;" vertex="1" parent="1">
          <mxGeometry x="1314.62" y="1080" width="215.38" height="90" as="geometry" />
        </mxCell>
        <mxCell id="Sf9XIOIQq0EHz7IIRPpC-151" style="edgeStyle=orthogonalEdgeStyle;rounded=0;orthogonalLoop=1;jettySize=auto;html=1;entryX=0;entryY=0.75;entryDx=0;entryDy=0;" edge="1" parent="1" target="Sf9XIOIQq0EHz7IIRPpC-110">
          <mxGeometry relative="1" as="geometry">
            <mxPoint x="1150" y="1284" as="sourcePoint" />
          </mxGeometry>
        </mxCell>
        <mxCell id="Sf9XIOIQq0EHz7IIRPpC-157" style="edgeStyle=orthogonalEdgeStyle;rounded=0;orthogonalLoop=1;jettySize=auto;html=1;exitX=1;exitY=0.25;exitDx=0;exitDy=0;entryX=0;entryY=0.25;entryDx=0;entryDy=0;" edge="1" parent="1" source="Sf9XIOIQq0EHz7IIRPpC-110" target="Sf9XIOIQq0EHz7IIRPpC-123">
          <mxGeometry relative="1" as="geometry" />
        </mxCell>
        <mxCell id="Sf9XIOIQq0EHz7IIRPpC-110" value="&lt;span style=&quot;font-size: 14px;&quot;&gt;Формирование и корректировка меню&lt;/span&gt;" style="html=1;align=center;verticalAlign=top;rounded=1;absoluteArcSize=1;arcSize=10;dashed=0;whiteSpace=wrap;" vertex="1" parent="1">
          <mxGeometry x="1320" y="1250" width="215.38" height="45" as="geometry" />
        </mxCell>
        <mxCell id="Sf9XIOIQq0EHz7IIRPpC-112" value="Идентификатор&lt;br&gt;администратора" style="text;html=1;strokeColor=none;fillColor=none;align=center;verticalAlign=middle;whiteSpace=wrap;rounded=0;" vertex="1" parent="1">
          <mxGeometry x="930" y="1137.5" width="60" height="30" as="geometry" />
        </mxCell>
        <mxCell id="Sf9XIOIQq0EHz7IIRPpC-115" value="Задачи&lt;br&gt;поваров" style="text;html=1;strokeColor=none;fillColor=none;align=center;verticalAlign=middle;whiteSpace=wrap;rounded=0;rotation=-91;" vertex="1" parent="1">
          <mxGeometry x="1250" y="1167.5" width="60" height="62.5" as="geometry" />
        </mxCell>
        <mxCell id="Sf9XIOIQq0EHz7IIRPpC-116" value="Задачи&lt;br&gt;горничных" style="text;html=1;strokeColor=none;fillColor=none;align=center;verticalAlign=middle;whiteSpace=wrap;rounded=0;rotation=0;" vertex="1" parent="1">
          <mxGeometry x="1250" y="1107.5" width="60" height="62.5" as="geometry" />
        </mxCell>
        <mxCell id="Sf9XIOIQq0EHz7IIRPpC-118" value="Администратор" style="text;html=1;strokeColor=none;fillColor=none;align=center;verticalAlign=middle;whiteSpace=wrap;rounded=0;rotation=-91;" vertex="1" parent="1">
          <mxGeometry x="1100" y="1205" width="60" height="30" as="geometry" />
        </mxCell>
        <mxCell id="Sf9XIOIQq0EHz7IIRPpC-120" style="edgeStyle=orthogonalEdgeStyle;rounded=0;orthogonalLoop=1;jettySize=auto;html=1;entryX=0.5;entryY=1;entryDx=0;entryDy=0;" edge="1" parent="1">
          <mxGeometry relative="1" as="geometry">
            <mxPoint x="1470" y="1295" as="targetPoint" />
            <mxPoint x="1350" y="1315" as="sourcePoint" />
          </mxGeometry>
        </mxCell>
        <mxCell id="Sf9XIOIQq0EHz7IIRPpC-121" value="Повара" style="text;html=1;strokeColor=none;fillColor=none;align=center;verticalAlign=middle;whiteSpace=wrap;rounded=0;rotation=0;" vertex="1" parent="1">
          <mxGeometry x="1380" y="1295" width="60" height="30" as="geometry" />
        </mxCell>
        <mxCell id="Sf9XIOIQq0EHz7IIRPpC-122" value="Система" style="text;html=1;strokeColor=none;fillColor=none;align=center;verticalAlign=middle;whiteSpace=wrap;rounded=0;rotation=0;" vertex="1" parent="1">
          <mxGeometry x="1380" y="1167.5" width="60" height="30" as="geometry" />
        </mxCell>
        <mxCell id="Sf9XIOIQq0EHz7IIRPpC-153" style="edgeStyle=orthogonalEdgeStyle;rounded=0;orthogonalLoop=1;jettySize=auto;html=1;exitX=0;exitY=0.75;exitDx=0;exitDy=0;entryX=0;entryY=0.75;entryDx=0;entryDy=0;startArrow=classic;startFill=1;endArrow=none;endFill=0;" edge="1" parent="1" source="Sf9XIOIQq0EHz7IIRPpC-123">
          <mxGeometry relative="1" as="geometry">
            <mxPoint x="1180" y="1283" as="targetPoint" />
          </mxGeometry>
        </mxCell>
        <mxCell id="Sf9XIOIQq0EHz7IIRPpC-123" value="&lt;span style=&quot;font-size: 14px;&quot;&gt;Просмотр рецептов&lt;/span&gt;" style="html=1;align=center;verticalAlign=top;rounded=1;absoluteArcSize=1;arcSize=10;dashed=0;whiteSpace=wrap;" vertex="1" parent="1">
          <mxGeometry x="1605" y="1295" width="155" height="45" as="geometry" />
        </mxCell>
        <mxCell id="Sf9XIOIQq0EHz7IIRPpC-126" style="edgeStyle=orthogonalEdgeStyle;rounded=0;orthogonalLoop=1;jettySize=auto;html=1;entryX=0.5;entryY=1;entryDx=0;entryDy=0;" edge="1" parent="1">
          <mxGeometry relative="1" as="geometry">
            <mxPoint x="1460" y="1167.5" as="targetPoint" />
            <mxPoint x="1340" y="1187.5" as="sourcePoint" />
          </mxGeometry>
        </mxCell>
        <mxCell id="Sf9XIOIQq0EHz7IIRPpC-179" style="edgeStyle=orthogonalEdgeStyle;rounded=0;orthogonalLoop=1;jettySize=auto;html=1;exitX=0;exitY=0.25;exitDx=0;exitDy=0;entryX=0;entryY=0.25;entryDx=0;entryDy=0;" edge="1" parent="1" target="Sf9XIOIQq0EHz7IIRPpC-129">
          <mxGeometry relative="1" as="geometry">
            <mxPoint x="930" y="1389.6470588235293" as="sourcePoint" />
          </mxGeometry>
        </mxCell>
        <mxCell id="Sf9XIOIQq0EHz7IIRPpC-180" style="edgeStyle=orthogonalEdgeStyle;rounded=0;orthogonalLoop=1;jettySize=auto;html=1;exitX=0;exitY=0.75;exitDx=0;exitDy=0;entryX=0;entryY=0.75;entryDx=0;entryDy=0;" edge="1" parent="1" target="Sf9XIOIQq0EHz7IIRPpC-129">
          <mxGeometry relative="1" as="geometry">
            <mxPoint x="930" y="1429.6470588235293" as="sourcePoint" />
          </mxGeometry>
        </mxCell>
        <mxCell id="Sf9XIOIQq0EHz7IIRPpC-189" style="edgeStyle=orthogonalEdgeStyle;rounded=0;orthogonalLoop=1;jettySize=auto;html=1;exitX=1;exitY=0.5;exitDx=0;exitDy=0;" edge="1" parent="1" source="Sf9XIOIQq0EHz7IIRPpC-129">
          <mxGeometry relative="1" as="geometry">
            <mxPoint x="1480" y="1409.6470588235293" as="targetPoint" />
          </mxGeometry>
        </mxCell>
        <mxCell id="Sf9XIOIQq0EHz7IIRPpC-129" value="&lt;span style=&quot;font-size: 14px;&quot;&gt;&lt;br&gt;Формирование запроса расходных материалов&lt;/span&gt;" style="html=1;align=center;verticalAlign=top;rounded=1;absoluteArcSize=1;arcSize=10;dashed=0;whiteSpace=wrap;" vertex="1" parent="1">
          <mxGeometry x="1080" y="1370" width="215.38" height="80" as="geometry" />
        </mxCell>
        <mxCell id="Sf9XIOIQq0EHz7IIRPpC-164" style="edgeStyle=orthogonalEdgeStyle;rounded=0;orthogonalLoop=1;jettySize=auto;html=1;exitX=0;exitY=0.75;exitDx=0;exitDy=0;entryX=0;entryY=0.75;entryDx=0;entryDy=0;" edge="1" parent="1">
          <mxGeometry relative="1" as="geometry">
            <mxPoint x="1620" y="1192.355" as="targetPoint" />
            <mxPoint x="1480" y="1193" as="sourcePoint" />
            <Array as="points">
              <mxPoint x="1570" y="1191.98" />
              <mxPoint x="1570" y="1191.98" />
            </Array>
          </mxGeometry>
        </mxCell>
        <mxCell id="Sf9XIOIQq0EHz7IIRPpC-167" style="edgeStyle=orthogonalEdgeStyle;rounded=0;orthogonalLoop=1;jettySize=auto;html=1;exitX=0;exitY=0.25;exitDx=0;exitDy=0;startArrow=classic;startFill=1;endArrow=none;endFill=0;" edge="1" parent="1" source="Sf9XIOIQq0EHz7IIRPpC-134">
          <mxGeometry relative="1" as="geometry">
            <mxPoint x="1600" y="1060" as="targetPoint" />
          </mxGeometry>
        </mxCell>
        <mxCell id="Sf9XIOIQq0EHz7IIRPpC-174" style="edgeStyle=orthogonalEdgeStyle;rounded=0;orthogonalLoop=1;jettySize=auto;html=1;exitX=1;exitY=0.5;exitDx=0;exitDy=0;" edge="1" parent="1" source="Sf9XIOIQq0EHz7IIRPpC-134">
          <mxGeometry relative="1" as="geometry">
            <mxPoint x="1960" y="1177" as="targetPoint" />
          </mxGeometry>
        </mxCell>
        <mxCell id="Sf9XIOIQq0EHz7IIRPpC-178" style="edgeStyle=orthogonalEdgeStyle;rounded=0;orthogonalLoop=1;jettySize=auto;html=1;exitX=1;exitY=1;exitDx=0;exitDy=0;entryX=1;entryY=1;entryDx=0;entryDy=0;" edge="1" parent="1" target="Sf9XIOIQq0EHz7IIRPpC-134">
          <mxGeometry relative="1" as="geometry">
            <mxPoint x="1740" y="1360" as="sourcePoint" />
            <Array as="points">
              <mxPoint x="1835" y="1360" />
            </Array>
          </mxGeometry>
        </mxCell>
        <mxCell id="Sf9XIOIQq0EHz7IIRPpC-196" style="edgeStyle=orthogonalEdgeStyle;rounded=0;orthogonalLoop=1;jettySize=auto;html=1;exitX=1;exitY=0.25;exitDx=0;exitDy=0;entryX=0;entryY=0.25;entryDx=0;entryDy=0;" edge="1" parent="1" source="Sf9XIOIQq0EHz7IIRPpC-134" target="Sf9XIOIQq0EHz7IIRPpC-193">
          <mxGeometry relative="1" as="geometry" />
        </mxCell>
        <mxCell id="Sf9XIOIQq0EHz7IIRPpC-134" value="&lt;span style=&quot;font-size: 14px;&quot;&gt;&lt;br&gt;Отметка выполненных задач&lt;/span&gt;" style="html=1;align=center;verticalAlign=top;rounded=1;absoluteArcSize=1;arcSize=10;dashed=0;whiteSpace=wrap;" vertex="1" parent="1">
          <mxGeometry x="1620" y="1140" width="215.38" height="72.5" as="geometry" />
        </mxCell>
        <mxCell id="Sf9XIOIQq0EHz7IIRPpC-149" style="edgeStyle=orthogonalEdgeStyle;rounded=0;orthogonalLoop=1;jettySize=auto;html=1;exitX=1;exitY=0.25;exitDx=0;exitDy=0;entryX=0.012;entryY=0.673;entryDx=0;entryDy=0;entryPerimeter=0;" edge="1" parent="1" source="Sf9XIOIQq0EHz7IIRPpC-108" target="Sf9XIOIQq0EHz7IIRPpC-109">
          <mxGeometry relative="1" as="geometry" />
        </mxCell>
        <mxCell id="Sf9XIOIQq0EHz7IIRPpC-152" value="Идентификатор&lt;br&gt;повара" style="text;html=1;strokeColor=none;fillColor=none;align=center;verticalAlign=middle;whiteSpace=wrap;rounded=0;" vertex="1" parent="1">
          <mxGeometry x="1230" y="1270" width="60" height="30" as="geometry" />
        </mxCell>
        <mxCell id="Sf9XIOIQq0EHz7IIRPpC-154" style="edgeStyle=orthogonalEdgeStyle;rounded=0;orthogonalLoop=1;jettySize=auto;html=1;entryX=0.5;entryY=1;entryDx=0;entryDy=0;" edge="1" parent="1">
          <mxGeometry relative="1" as="geometry">
            <mxPoint x="1740" y="1340" as="targetPoint" />
            <mxPoint x="1620" y="1360" as="sourcePoint" />
          </mxGeometry>
        </mxCell>
        <mxCell id="Sf9XIOIQq0EHz7IIRPpC-155" value="Повара" style="text;html=1;strokeColor=none;fillColor=none;align=center;verticalAlign=middle;whiteSpace=wrap;rounded=0;rotation=0;" vertex="1" parent="1">
          <mxGeometry x="1650" y="1340" width="60" height="30" as="geometry" />
        </mxCell>
        <mxCell id="Sf9XIOIQq0EHz7IIRPpC-158" value="Меню" style="text;html=1;strokeColor=none;fillColor=none;align=center;verticalAlign=middle;whiteSpace=wrap;rounded=0;rotation=0;" vertex="1" parent="1">
          <mxGeometry x="1527.69" y="1240" width="60" height="30" as="geometry" />
        </mxCell>
        <mxCell id="Sf9XIOIQq0EHz7IIRPpC-163" style="edgeStyle=orthogonalEdgeStyle;rounded=0;orthogonalLoop=1;jettySize=auto;html=1;exitX=1;exitY=0.5;exitDx=0;exitDy=0;entryX=-0.001;entryY=0.847;entryDx=0;entryDy=0;entryPerimeter=0;" edge="1" parent="1" source="Sf9XIOIQq0EHz7IIRPpC-123" target="Sf9XIOIQq0EHz7IIRPpC-134">
          <mxGeometry relative="1" as="geometry" />
        </mxCell>
        <mxCell id="Sf9XIOIQq0EHz7IIRPpC-168" style="edgeStyle=orthogonalEdgeStyle;rounded=0;orthogonalLoop=1;jettySize=auto;html=1;entryX=0.5;entryY=1;entryDx=0;entryDy=0;" edge="1" parent="1">
          <mxGeometry relative="1" as="geometry">
            <mxPoint x="1700" y="1212.5" as="targetPoint" />
            <mxPoint x="1620" y="1234" as="sourcePoint" />
          </mxGeometry>
        </mxCell>
        <mxCell id="Sf9XIOIQq0EHz7IIRPpC-169" style="edgeStyle=orthogonalEdgeStyle;rounded=0;orthogonalLoop=1;jettySize=auto;html=1;entryX=0.5;entryY=1;entryDx=0;entryDy=0;" edge="1" parent="1">
          <mxGeometry relative="1" as="geometry">
            <mxPoint x="1737.44" y="1212.5" as="targetPoint" />
            <mxPoint x="1830" y="1235" as="sourcePoint" />
          </mxGeometry>
        </mxCell>
        <mxCell id="Sf9XIOIQq0EHz7IIRPpC-170" value="Горничные" style="text;html=1;strokeColor=none;fillColor=none;align=center;verticalAlign=middle;whiteSpace=wrap;rounded=0;rotation=0;" vertex="1" parent="1">
          <mxGeometry x="1630" y="1215" width="60" height="30" as="geometry" />
        </mxCell>
        <mxCell id="Sf9XIOIQq0EHz7IIRPpC-171" value="Система" style="text;html=1;strokeColor=none;fillColor=none;align=center;verticalAlign=middle;whiteSpace=wrap;rounded=0;rotation=0;" vertex="1" parent="1">
          <mxGeometry x="1745.38" y="1215" width="60" height="30" as="geometry" />
        </mxCell>
        <mxCell id="Sf9XIOIQq0EHz7IIRPpC-172" value="Идентификатор&lt;br&gt;повара" style="text;html=1;strokeColor=none;fillColor=none;align=center;verticalAlign=middle;whiteSpace=wrap;rounded=0;" vertex="1" parent="1">
          <mxGeometry x="1510" y="1177.5" width="60" height="30" as="geometry" />
        </mxCell>
        <mxCell id="Sf9XIOIQq0EHz7IIRPpC-173" value="Идентификатор&lt;br&gt;горничной" style="text;html=1;strokeColor=none;fillColor=none;align=center;verticalAlign=middle;whiteSpace=wrap;rounded=0;rotation=-91;" vertex="1" parent="1">
          <mxGeometry x="1570" y="1090" width="60" height="30" as="geometry" />
        </mxCell>
        <mxCell id="Sf9XIOIQq0EHz7IIRPpC-175" value="Задачи&lt;br&gt;персонала" style="text;html=1;strokeColor=none;fillColor=none;align=center;verticalAlign=middle;whiteSpace=wrap;rounded=0;rotation=0;" vertex="1" parent="1">
          <mxGeometry x="1850" y="1161.25" width="60" height="30" as="geometry" />
        </mxCell>
        <mxCell id="Sf9XIOIQq0EHz7IIRPpC-176" value="Список рецептов" style="text;html=1;strokeColor=none;fillColor=none;align=center;verticalAlign=middle;whiteSpace=wrap;rounded=0;" vertex="1" parent="1">
          <mxGeometry x="1685.38" y="1240" width="60" height="30" as="geometry" />
        </mxCell>
        <mxCell id="Sf9XIOIQq0EHz7IIRPpC-177" value="График" style="text;html=1;strokeColor=none;fillColor=none;align=center;verticalAlign=middle;whiteSpace=wrap;rounded=0;" vertex="1" parent="1">
          <mxGeometry x="1523" y="1123.75" width="60" height="30" as="geometry" />
        </mxCell>
        <mxCell id="Sf9XIOIQq0EHz7IIRPpC-181" value="Идентификатор&lt;br&gt;повара" style="text;html=1;strokeColor=none;fillColor=none;align=center;verticalAlign=middle;whiteSpace=wrap;rounded=0;" vertex="1" parent="1">
          <mxGeometry x="970" y="1376" width="60" height="30" as="geometry" />
        </mxCell>
        <mxCell id="Sf9XIOIQq0EHz7IIRPpC-183" value="Идентификатор&lt;br&gt;горничной" style="text;html=1;strokeColor=none;fillColor=none;align=center;verticalAlign=middle;whiteSpace=wrap;rounded=0;" vertex="1" parent="1">
          <mxGeometry x="970" y="1417" width="60" height="30" as="geometry" />
        </mxCell>
        <mxCell id="Sf9XIOIQq0EHz7IIRPpC-185" style="edgeStyle=orthogonalEdgeStyle;rounded=0;orthogonalLoop=1;jettySize=auto;html=1;entryX=0.5;entryY=1;entryDx=0;entryDy=0;" edge="1" parent="1">
          <mxGeometry relative="1" as="geometry">
            <mxPoint x="1170" y="1450" as="targetPoint" />
            <mxPoint x="1090" y="1471.5" as="sourcePoint" />
          </mxGeometry>
        </mxCell>
        <mxCell id="Sf9XIOIQq0EHz7IIRPpC-186" value="Горничные" style="text;html=1;strokeColor=none;fillColor=none;align=center;verticalAlign=middle;whiteSpace=wrap;rounded=0;rotation=0;" vertex="1" parent="1">
          <mxGeometry x="1100" y="1450" width="60" height="30" as="geometry" />
        </mxCell>
        <mxCell id="Sf9XIOIQq0EHz7IIRPpC-187" style="edgeStyle=orthogonalEdgeStyle;rounded=0;orthogonalLoop=1;jettySize=auto;html=1;entryX=0.5;entryY=1;entryDx=0;entryDy=0;" edge="1" parent="1">
          <mxGeometry relative="1" as="geometry">
            <mxPoint x="1210" y="1450" as="targetPoint" />
            <mxPoint x="1302.56" y="1472.5" as="sourcePoint" />
          </mxGeometry>
        </mxCell>
        <mxCell id="Sf9XIOIQq0EHz7IIRPpC-188" value="Повара" style="text;html=1;strokeColor=none;fillColor=none;align=center;verticalAlign=middle;whiteSpace=wrap;rounded=0;rotation=0;" vertex="1" parent="1">
          <mxGeometry x="1220" y="1450" width="60" height="30" as="geometry" />
        </mxCell>
        <mxCell id="Sf9XIOIQq0EHz7IIRPpC-190" value="Запрос расходных материалов" style="text;html=1;strokeColor=none;fillColor=none;align=center;verticalAlign=middle;whiteSpace=wrap;rounded=0;" vertex="1" parent="1">
          <mxGeometry x="1320" y="1395" width="140" height="30" as="geometry" />
        </mxCell>
        <mxCell id="Sf9XIOIQq0EHz7IIRPpC-192" value="Система" style="text;html=1;strokeColor=none;fillColor=none;align=center;verticalAlign=middle;whiteSpace=wrap;rounded=0;rotation=-91;" vertex="1" parent="1">
          <mxGeometry x="1050" y="1212.5" width="60" height="30" as="geometry" />
        </mxCell>
        <mxCell id="Sf9XIOIQq0EHz7IIRPpC-198" style="edgeStyle=orthogonalEdgeStyle;rounded=0;orthogonalLoop=1;jettySize=auto;html=1;exitX=1;exitY=0.5;exitDx=0;exitDy=0;" edge="1" parent="1" source="Sf9XIOIQq0EHz7IIRPpC-193">
          <mxGeometry relative="1" as="geometry">
            <mxPoint x="2320" y="1168.5714285714284" as="targetPoint" />
          </mxGeometry>
        </mxCell>
        <mxCell id="Sf9XIOIQq0EHz7IIRPpC-200" style="edgeStyle=orthogonalEdgeStyle;rounded=0;orthogonalLoop=1;jettySize=auto;html=1;exitX=0.5;exitY=1;exitDx=0;exitDy=0;entryX=0.5;entryY=1;entryDx=0;entryDy=0;" edge="1" parent="1" target="Sf9XIOIQq0EHz7IIRPpC-193">
          <mxGeometry relative="1" as="geometry">
            <mxPoint x="2127.4761904761904" y="1290" as="sourcePoint" />
          </mxGeometry>
        </mxCell>
        <mxCell id="Sf9XIOIQq0EHz7IIRPpC-193" value="&lt;font style=&quot;font-size: 14px;&quot;&gt;Формирование отчета о работе гостинцы&lt;/font&gt;" style="html=1;align=center;verticalAlign=top;rounded=1;absoluteArcSize=1;arcSize=10;dashed=0;whiteSpace=wrap;" vertex="1" parent="1">
          <mxGeometry x="2020" y="1146.25" width="215.38" height="45" as="geometry" />
        </mxCell>
        <mxCell id="Sf9XIOIQq0EHz7IIRPpC-197" value="Отчет о выполненных задачах" style="text;html=1;strokeColor=none;fillColor=none;align=center;verticalAlign=middle;whiteSpace=wrap;rounded=0;" vertex="1" parent="1">
          <mxGeometry x="1880" y="1140" width="140" height="30" as="geometry" />
        </mxCell>
        <mxCell id="Sf9XIOIQq0EHz7IIRPpC-199" value="Отчет" style="text;html=1;strokeColor=none;fillColor=none;align=center;verticalAlign=middle;whiteSpace=wrap;rounded=0;" vertex="1" parent="1">
          <mxGeometry x="2200" y="1147.5" width="140" height="30" as="geometry" />
        </mxCell>
        <mxCell id="Sf9XIOIQq0EHz7IIRPpC-201" value="Система" style="text;html=1;strokeColor=none;fillColor=none;align=center;verticalAlign=middle;whiteSpace=wrap;rounded=0;rotation=-91;" vertex="1" parent="1">
          <mxGeometry x="2090" y="1230" width="60" height="30" as="geometry" />
        </mxCell>
        <mxCell id="Sf9XIOIQq0EHz7IIRPpC-203" value="31" style="text;html=1;strokeColor=none;fillColor=none;align=center;verticalAlign=middle;whiteSpace=wrap;rounded=0;" vertex="1" parent="1">
          <mxGeometry x="1230" y="938.75" width="12.31" height="21.25" as="geometry" />
        </mxCell>
        <mxCell id="Sf9XIOIQq0EHz7IIRPpC-204" value="32" style="text;html=1;strokeColor=none;fillColor=none;align=center;verticalAlign=middle;whiteSpace=wrap;rounded=0;" vertex="1" parent="1">
          <mxGeometry x="1517.6899999999998" y="870" width="12.31" height="21.25" as="geometry" />
        </mxCell>
        <mxCell id="Sf9XIOIQq0EHz7IIRPpC-205" value="33" style="text;html=1;strokeColor=none;fillColor=none;align=center;verticalAlign=middle;whiteSpace=wrap;rounded=0;" vertex="1" parent="1">
          <mxGeometry x="1515.3799999999999" y="1021.75" width="12.31" height="21.25" as="geometry" />
        </mxCell>
        <mxCell id="Sf9XIOIQq0EHz7IIRPpC-206" value="34" style="text;html=1;strokeColor=none;fillColor=none;align=center;verticalAlign=middle;whiteSpace=wrap;rounded=0;" vertex="1" parent="1">
          <mxGeometry x="1793.07" y="933.37" width="12.31" height="21.25" as="geometry" />
        </mxCell>
        <mxCell id="Sf9XIOIQq0EHz7IIRPpC-207" value="35" style="text;html=1;strokeColor=none;fillColor=none;align=center;verticalAlign=middle;whiteSpace=wrap;rounded=0;" vertex="1" parent="1">
          <mxGeometry x="1230" y="1156.25" width="12.31" height="21.25" as="geometry" />
        </mxCell>
        <mxCell id="Sf9XIOIQq0EHz7IIRPpC-209" value="36" style="text;html=1;strokeColor=none;fillColor=none;align=center;verticalAlign=middle;whiteSpace=wrap;rounded=0;" vertex="1" parent="1">
          <mxGeometry x="1515.38" y="1148" width="12.31" height="21.25" as="geometry" />
        </mxCell>
        <mxCell id="Sf9XIOIQq0EHz7IIRPpC-210" value="37" style="text;html=1;strokeColor=none;fillColor=none;align=center;verticalAlign=middle;whiteSpace=wrap;rounded=0;" vertex="1" parent="1">
          <mxGeometry x="1523" y="1278.75" width="12.31" height="21.25" as="geometry" />
        </mxCell>
        <mxCell id="Sf9XIOIQq0EHz7IIRPpC-211" value="39" style="text;html=1;strokeColor=none;fillColor=none;align=center;verticalAlign=middle;whiteSpace=wrap;rounded=0;" vertex="1" parent="1">
          <mxGeometry x="1820" y="1193.75" width="12.31" height="21.25" as="geometry" />
        </mxCell>
        <mxCell id="Sf9XIOIQq0EHz7IIRPpC-212" value="38" style="text;html=1;strokeColor=none;fillColor=none;align=center;verticalAlign=middle;whiteSpace=wrap;rounded=0;" vertex="1" parent="1">
          <mxGeometry x="1745.38" y="1318.75" width="12.31" height="21.25" as="geometry" />
        </mxCell>
        <mxCell id="Sf9XIOIQq0EHz7IIRPpC-213" value="310" style="text;html=1;strokeColor=none;fillColor=none;align=center;verticalAlign=middle;whiteSpace=wrap;rounded=0;" vertex="1" parent="1">
          <mxGeometry x="2220" y="1175" width="12.31" height="21.25" as="geometry" />
        </mxCell>
        <mxCell id="Sf9XIOIQq0EHz7IIRPpC-214" value="311" style="text;html=1;strokeColor=none;fillColor=none;align=center;verticalAlign=middle;whiteSpace=wrap;rounded=0;" vertex="1" parent="1">
          <mxGeometry x="1280.0000000000002" y="1428.75" width="12.31" height="21.25" as="geometry" />
        </mxCell>
      </root>
    </mxGraphModel>
  </diagram>
  <diagram id="30CSTh-y9SVbLgZfz-_A" name="Страница — 2">
    <mxGraphModel dx="5413" dy="2800" grid="1" gridSize="10" guides="1" tooltips="1" connect="1" arrows="1" fold="1" page="1" pageScale="1" pageWidth="3300" pageHeight="2339" math="0" shadow="0">
      <root>
        <mxCell id="0" />
        <mxCell id="1" parent="0" />
      </root>
    </mxGraphModel>
  </diagram>
</mxfile>
